<?xml version="1.0" encoding="UTF-8" standalone="no"?>
<svg width="307px" height="45px" viewBox="0 0 307 45" version="1.1" xmlns="http://www.w3.org/2000/svg" xmlns:xlink="http://www.w3.org/1999/xlink" xmlns:sketch="http://www.bohemiancoding.com/sketch/ns">
    <!-- Generator: Sketch 3.3.2 (12043) - http://www.bohemiancoding.com/sketch -->
    <title>medium_header_logo</title>
    <desc>Created with Sketch.</desc>
    <defs></defs>
    <g id="Page-1" stroke="none" stroke-width="1" fill="none" fill-rule="evenodd" sketch:type="MSPage">
        <g id="medium_header_logo" sketch:type="MSArtboardGroup">
            <g id="Group" sketch:type="MSLayerGroup" transform="translate(15.000000, 10.000000)">
                <g id="Shape" sketch:type="MSShapeGroup">
                    <path d="M19.9997222,13.75 C19.9997222,21.2497778 14.9998611,22.4997222 10.0000278,24.9996667 C5.00016667,22.4997417 0.000333333333,21.2497778 0.000333333333,13.75 L0.000333333333,1.25022222 C0.000333333333,1.25022222 5.00019444,0.000419444444 10.0000278,0.000419444444 C14.9998889,0.000419444444 19.9997222,1.25022222 19.9997222,1.25022222 L19.9997222,13.75 L19.9997222,13.75 Z" fill="#000000"></path>
                    <path d="M18.7497222,13.5936111 C18.7497222,17.915 16.8523583,19.8649722 14.3073889,21.3174167 L11.9205556,1.62747222 C15.5695,1.86190944 18.7497222,2.65633056 18.7497222,2.65633056 L18.7497222,13.5936083 L18.7497222,13.5936111 Z M9.375,23.1311111 L9.375,1.57072222 C9.58304917,1.5660795 9.791375,1.56278594 9.99998056,1.56278594 C10.2085853,1.56278594 10.4169111,1.5660795 10.6249611,1.57072222 L10.6249611,23.1311111 C10.4169119,23.2310683 10.2084667,23.3328511 9.99998056,23.4371722 C9.79153444,23.33285 9.58305,23.2310675 9.375,23.1311111 L9.375,23.1311111 Z M1.25027778,13.5936111 L1.25027778,2.65633333 C1.25027778,2.65633333 4.4305,1.86191389 8.07936111,1.627475 L5.69272778,21.3174194 C3.14764722,19.8649639 1.25028333,17.914975 1.25028333,13.5936139 L1.25027778,13.5936111 Z M10,0.000277777778 C5.00013889,0.000277777778 0.000305555556,1.25011944 0.000305555556,1.25011944 L0.000305555556,13.7498972 C0.000305555556,21.249675 5.00016667,22.4996194 10,24.9995639 C14.9998611,22.4996389 19.9996944,21.249675 19.9996944,13.7498972 L19.9996944,1.25011944 C19.9996944,1.25011944 14.9998333,0.000277777778 10,0.000277777778 L10,0.000277777778 Z" fill="#FFD200"></path>
                </g>
                <path d="M35.9078252,7.65881464 C36.3114189,7.65881464 36.6218757,7.95709592 36.6218757,8.34351902 L36.6218757,9.02880711 C36.6218757,9.41523022 36.3114189,9.71351149 35.9078252,9.71351149 L32.5238468,9.71351149 L32.5238468,17.407534 C32.5238468,17.7799478 32.1981716,18.0776454 31.810405,18.0776454 L30.382304,18.0776454 C29.9939287,18.0776454 29.6682535,17.7799478 29.6682535,17.407534 L29.6682535,9.71351149 L26.2842751,9.71351149 C25.8806813,9.71351149 25.5708333,9.41523022 25.5708333,9.02880711 L25.5708333,8.34351902 C25.5708333,7.95709592 25.8806813,7.65881464 26.2842751,7.65881464 L35.9078252,7.65881464 L35.9078252,7.65881464 Z" id="Shape" fill="#FFFFFF" sketch:type="MSShapeGroup"></path>
                <path d="M46.4262212,7.65881464 C46.9077335,7.65881464 47.202363,7.95709592 47.3265457,8.34351902 L49.1740677,14.1036749 L51.1762093,8.34351902 C51.3156104,7.95709592 51.6723313,7.65881464 52.075925,7.65881464 L53.737173,7.65881464 C54.0780666,7.65881464 54.3574777,7.94191918 54.233295,8.26938649 L50.8499253,17.3334015 C50.6788697,17.7945408 50.3069304,18.0776454 49.7633267,18.0776454 L48.6615097,18.0776454 C48.117906,18.0776454 47.7301395,17.7945408 47.5749111,17.3334015 L45.7279979,11.7366874 L43.8804759,17.3334015 C43.7252476,17.7945408 43.337481,18.0776454 42.7944861,18.0776454 L41.6926691,18.0776454 C41.1490654,18.0776454 40.7765173,17.7945408 40.6054617,17.3334015 L37.222092,8.26938649 C37.0979093,7.94191918 37.3773204,7.65881464 37.7188228,7.65881464 L39.3800707,7.65881464 C39.7830558,7.65881464 40.1403854,7.95709592 40.2797865,8.34351902 L42.2819281,14.1036749 L44.1294501,8.34351902 C44.2536328,7.95709592 44.5482623,7.65881464 45.0291659,7.65881464 L46.4262212,7.65881464 L46.4262212,7.65881464 Z" id="Shape" fill="#FFFFFF" sketch:type="MSShapeGroup"></path>
                <path d="M55.3046751,8.34351902 C55.3046751,7.95709592 55.6303503,7.65881464 56.0187256,7.65881464 L57.4309994,7.65881464 C57.8339844,7.65881464 58.1602683,7.95709592 58.1602683,8.34351902 L58.1602683,17.392941 C58.1602683,17.7653548 57.8339844,18.0776454 57.4309994,18.0776454 L56.0187256,18.0776454 C55.6303503,18.0776454 55.3046751,17.7799478 55.3046751,17.407534 L55.3046751,8.34351902 L55.3046751,8.34351902 Z" id="Shape" fill="#FFFFFF" sketch:type="MSShapeGroup"></path>
                <path d="M60.8161953,18.0776454 C60.42782,18.0776454 60.1021448,17.7653548 60.1021448,17.392941 L60.1021448,8.34351902 C60.1021448,7.97168893 60.4126015,7.65881464 60.8009768,7.65881464 L63.0356566,7.65881464 C63.4082047,7.65881464 63.8428441,8.00145869 64.0753823,8.34351902 L68.6543148,15.1006698 L68.6543148,8.328926 C68.6543148,7.95709592 68.97999,7.65881464 69.3683653,7.65881464 L70.6716748,7.65881464 C71.0758773,7.65881464 71.3857253,7.95709592 71.3857253,8.34351902 L71.3857253,17.392941 C71.3857253,17.7653548 71.0758773,18.0776454 70.6716748,18.0776454 L68.157584,18.0776454 C67.7539903,18.0776454 67.3035236,17.7653548 67.055767,17.392941 L62.864601,11.1570528 L62.864601,17.392941 C62.864601,17.7653548 62.5389258,18.0776454 62.1505505,18.0776454 L60.8161953,18.0776454 L60.8161953,18.0776454 Z" id="Shape" fill="#FFFFFF" sketch:type="MSShapeGroup"></path>
                <path d="M78.4203097,7.59985885 L80.1119946,7.59985885 C82.2231004,7.59985885 84.4736074,8.68616307 84.4736074,10.7998157 C84.4736074,11.4693433 83.898958,11.6030154 83.6974655,11.6030154 L82.797141,11.6030154 C82.3631103,11.6030154 82.0057807,11.4098038 81.7105424,10.7998157 C81.3696487,10.0999346 80.7791722,9.65397198 79.8484107,9.65397198 L78.4976196,9.65397198 C76.2629398,9.65397198 75.6572448,10.4425786 75.6572448,12.8685219 C75.6572448,15.2950488 76.2629398,16.0830717 78.4976196,16.0830717 L80.0036391,16.0830717 C80.9350093,16.0830717 81.5248771,15.6371091 81.8657708,14.937228 C82.1610091,14.3266562 82.5177299,14.1334446 82.9523694,14.1334446 L83.8526939,14.1334446 C84.0547951,14.1334446 84.6288357,14.2677004 84.6288357,14.937228 C84.6288357,17.0502969 82.3783288,18.1371849 80.267223,18.1371849 L78.4203097,18.1371849 C74.7106561,18.1371849 72.8016516,16.4852553 72.8016516,12.8685219 C72.8016516,9.25178842 74.7106561,7.59985885 78.4203097,7.59985885" id="Shape" fill="#FFFFFF" sketch:type="MSShapeGroup"></path>
                <path d="M88.8333939,9.71351149 L88.8333939,12.2135872 L92.062144,12.2135872 C92.9308141,12.2135872 94.0326312,11.9158897 94.0326312,10.9638412 C94.0326312,10.011209 92.9308141,9.71351149 92.062144,9.71351149 L88.8333939,9.71351149 L88.8333939,9.71351149 Z M88.8333939,14.2677004 L88.8333939,17.392941 C88.8333939,17.7653548 88.5229372,18.0776454 88.1193434,18.0776454 L86.6912425,18.0776454 C86.3034759,18.0776454 85.9778007,17.7653548 85.9778007,17.392941 L85.9778007,8.34351902 C85.9778007,7.95709592 86.2876487,7.65881464 86.676024,7.65881464 L92.9308141,7.65881464 C95.1971483,7.65881464 96.8888332,8.90972809 96.8888332,10.9638412 C96.8888332,12.571408 95.6001333,13.3150682 94.0326312,13.6127657 C94.6693719,13.8363308 95.135057,14.3570096 95.7559704,15.2950488 L97.1371985,17.392941 C97.3855639,17.7799478 97.2765997,18.0776454 96.8730059,18.0776454 L95.0577471,18.0776454 C94.6693719,18.0776454 94.1415954,17.7799478 93.89323,17.392941 L92.6045302,15.4584906 C92.2173724,14.8776885 91.6585502,14.2677004 90.6803072,14.2677004 L88.8333939,14.2677004 L88.8333939,14.2677004 Z" id="Shape" fill="#FFFFFF" sketch:type="MSShapeGroup"></path>
                <path d="M108.522438,8.34351902 L108.522438,9.02880711 C108.522438,9.41523022 108.196763,9.71351149 107.808388,9.71351149 L101.212095,9.71351149 L101.212095,11.8265804 L106.892845,11.8265804 C107.28122,11.8265804 107.606895,12.138871 107.606895,12.5112848 L107.606895,13.1959892 C107.606895,13.5678193 107.28122,13.8801098 106.892845,13.8801098 L101.212095,13.8801098 L101.212095,16.0235322 L107.793169,16.0235322 C108.180936,16.0235322 108.491393,16.3212298 108.491393,16.6936436 L108.491393,17.392941 C108.491393,17.7653548 108.180936,18.0776454 107.777342,18.0776454 L99.0705526,18.0776454 C98.6669589,18.0776454 98.3565022,17.7653548 98.3565022,17.378348 L98.3565022,8.328926 C98.3565022,7.95709592 98.6821774,7.65881464 99.0705526,7.65881464 L107.808388,7.65881464 C108.196763,7.65881464 108.522438,7.95709592 108.522438,8.34351902" id="Shape" fill="#FFFFFF" sketch:type="MSShapeGroup"></path>
                <path d="M114.113095,7.59985885 L116.037318,7.59985885 C117.993195,7.59985885 120.088474,8.68616307 120.088474,10.2791368 C120.088474,10.9486645 119.514433,11.0829202 119.312332,11.0829202 L118.412616,11.0829202 C117.977977,11.0829202 117.636474,10.889125 117.388109,10.3982159 C117.139743,9.89213002 116.549876,9.65397198 115.774343,9.65397198 L113.491572,9.65397198 C112.560811,9.65397198 112.157217,9.96626255 112.157217,10.4869414 C112.157217,12.2135872 120.367885,11.2165923 120.367885,15.1012535 C120.367885,16.8868551 119.281286,18.1371849 115.556414,18.1371849 L113.259643,18.1371849 C111.303766,18.1371849 109.207878,17.0502969 109.207878,15.4584906 C109.207878,14.7883792 109.782528,14.6547072 109.984629,14.6547072 L110.884345,14.6547072 C111.318984,14.6547072 111.661095,14.8479187 111.908852,15.3394116 C112.157217,15.8454974 112.747085,16.0830717 113.523227,16.0830717 L116.177328,16.0830717 C117.108698,16.0830717 117.512292,15.7707812 117.512292,15.2495186 C117.512292,13.5234565 109.301624,14.4912654 109.301624,10.6357902 C109.301624,8.85018858 110.388223,7.59985885 114.113095,7.59985885" id="Shape" fill="#FFFFFF" sketch:type="MSShapeGroup"></path>
                <path d="M131.18091,7.65881464 C131.584504,7.65881464 131.894961,7.95709592 131.894961,8.34351902 L131.894961,9.02880711 C131.894961,9.41523022 131.584504,9.71351149 131.18091,9.71351149 L127.796932,9.71351149 L127.796932,17.407534 C127.796932,17.7799478 127.471257,18.0776454 127.08349,18.0776454 L125.655389,18.0776454 C125.267014,18.0776454 124.941339,17.7799478 124.941339,17.407534 L124.941339,9.71351149 L121.55736,9.71351149 C121.153766,9.71351149 120.843918,9.41523022 120.843918,9.02880711 L120.843918,8.34351902 C120.843918,7.95709592 121.153766,7.65881464 121.55736,7.65881464 L131.18091,7.65881464 L131.18091,7.65881464 Z" id="Shape" fill="#FFFFFF" sketch:type="MSShapeGroup"></path>
                <path d="M147.97662,7.65881464 C148.380214,7.65881464 148.69067,7.95709592 148.69067,8.34351902 L148.69067,9.02880711 C148.69067,9.41523022 148.380214,9.71351149 147.97662,9.71351149 L144.592641,9.71351149 L144.592641,17.407534 C144.592641,17.7799478 144.266966,18.0776454 143.8792,18.0776454 L142.451099,18.0776454 C142.062723,18.0776454 141.737048,17.7799478 141.737048,17.407534 L141.737048,9.71351149 L138.35307,9.71351149 C137.949476,9.71351149 137.639628,9.41523022 137.639628,9.02880711 L137.639628,8.34351902 C137.639628,7.95709592 137.949476,7.65881464 138.35307,7.65881464 L147.97662,7.65881464 L147.97662,7.65881464 Z" id="Shape" fill="#FFFFFF" sketch:type="MSShapeGroup"></path>
                <path d="M159.881114,8.34351902 L159.881114,9.02880711 C159.881114,9.41523022 159.555439,9.71351149 159.167063,9.71351149 L152.570771,9.71351149 L152.570771,11.8265804 L158.25152,11.8265804 C158.639896,11.8265804 158.965571,12.138871 158.965571,12.5112848 L158.965571,13.1959892 C158.965571,13.5678193 158.639896,13.8801098 158.25152,13.8801098 L152.570771,13.8801098 L152.570771,16.0235322 L159.151845,16.0235322 C159.539611,16.0235322 159.850068,16.3212298 159.850068,16.6936436 L159.850068,17.392941 C159.850068,17.7653548 159.539611,18.0776454 159.136018,18.0776454 L150.429228,18.0776454 C150.025634,18.0776454 149.715177,17.7653548 149.715177,17.378348 L149.715177,8.328926 C149.715177,7.95709592 150.040853,7.65881464 150.429228,7.65881464 L159.167063,7.65881464 C159.555439,7.65881464 159.881114,7.95709592 159.881114,8.34351902" id="Shape" fill="#FFFFFF" sketch:type="MSShapeGroup"></path>
                <path d="M166.078074,7.59985885 L167.769759,7.59985885 C169.880864,7.59985885 172.131371,8.68616307 172.131371,10.7998157 C172.131371,11.4693433 171.556722,11.6030154 171.35523,11.6030154 L170.454905,11.6030154 C170.020874,11.6030154 169.663545,11.4098038 169.368306,10.7998157 C169.027413,10.0999346 168.437545,9.65397198 167.506175,9.65397198 L166.155384,9.65397198 C163.920704,9.65397198 163.315009,10.4425786 163.315009,12.8685219 C163.315009,15.2950488 163.920704,16.0830717 166.155384,16.0830717 L167.661403,16.0830717 C168.592773,16.0830717 169.182641,15.6371091 169.523535,14.937228 C169.818773,14.3266562 170.175494,14.1334446 170.610133,14.1334446 L171.510458,14.1334446 C171.712559,14.1334446 172.2866,14.2677004 172.2866,14.937228 C172.2866,17.0502969 170.036093,18.1371849 167.924987,18.1371849 L166.078074,18.1371849 C162.36842,18.1371849 160.459416,16.4852553 160.459416,12.8685219 C160.459416,9.25178842 162.36842,7.59985885 166.078074,7.59985885" id="Shape" fill="#FFFFFF" sketch:type="MSShapeGroup"></path>
                <path d="M181.706222,13.6723053 L176.491158,13.6723053 L176.491158,17.407534 C176.491158,17.7799478 176.164265,18.0776454 175.777107,18.0776454 L174.364225,18.0776454 C173.960631,18.0776454 173.634956,17.7653548 173.634956,17.392941 L173.634956,8.34351902 C173.634956,7.95709592 173.960631,7.65881464 174.364225,7.65881464 L175.777107,7.65881464 C176.164265,7.65881464 176.491158,7.95709592 176.491158,8.34351902 L176.491158,11.6181921 L181.706222,11.6181921 L181.706222,8.34351902 C181.706222,7.95709592 182.031898,7.65881464 182.420273,7.65881464 L183.832547,7.65881464 C184.235532,7.65881464 184.561816,7.95709592 184.561816,8.34351902 L184.561816,17.392941 C184.561816,17.7653548 184.235532,18.0776454 183.832547,18.0776454 L182.420273,18.0776454 C182.031898,18.0776454 181.706222,17.7799478 181.706222,17.407534 L181.706222,13.6723053 L181.706222,13.6723053 Z" id="Shape" fill="#FFFFFF" sketch:type="MSShapeGroup"></path>
                <path d="M187.250614,18.0776454 C186.862239,18.0776454 186.536564,17.7653548 186.536564,17.392941 L186.536564,8.34351902 C186.536564,7.97168893 186.847021,7.65881464 187.235396,7.65881464 L189.470076,7.65881464 C189.842624,7.65881464 190.277263,8.00145869 190.509801,8.34351902 L195.088734,15.1006698 L195.088734,8.328926 C195.088734,7.95709592 195.414409,7.65881464 195.802784,7.65881464 L197.106094,7.65881464 C197.510296,7.65881464 197.820144,7.95709592 197.820144,8.34351902 L197.820144,17.392941 C197.820144,17.7653548 197.510296,18.0776454 197.106094,18.0776454 L194.592003,18.0776454 C194.188409,18.0776454 193.737943,17.7653548 193.490186,17.392941 L189.29902,11.1570528 L189.29902,17.392941 C189.29902,17.7653548 188.973345,18.0776454 188.58497,18.0776454 L187.250614,18.0776454 L187.250614,18.0776454 Z" id="Shape" fill="#FFFFFF" sketch:type="MSShapeGroup"></path>
                <path d="M202.091664,12.8685219 C202.091664,15.1006698 203.007816,16.3358228 205.335632,16.3358228 C207.664058,16.3358228 208.579601,15.1006698 208.579601,12.8685219 C208.579601,10.6357902 207.664058,9.4006372 205.335632,9.4006372 C203.007816,9.4006372 202.091664,10.6357902 202.091664,12.8685219 M205.335632,7.43583333 C209.216342,7.43583333 211.435803,8.99845364 211.435803,12.8685219 C211.435803,16.7380064 209.216342,18.3012104 205.335632,18.3012104 C201.455532,18.3012104 199.236071,16.7380064 199.236071,12.8685219 C199.236071,8.99845364 201.455532,7.43583333 205.335632,7.43583333" id="Shape" fill="#FFFFFF" sketch:type="MSShapeGroup"></path>
                <path d="M214.993881,7.65881464 C215.397474,7.65881464 215.707931,7.97168893 215.707931,8.35869575 L215.707931,16.0235322 L222.304224,16.0235322 C222.69199,16.0235322 223.018274,16.3212298 223.018274,16.7082366 L223.018274,17.392941 C223.018274,17.7799478 222.69199,18.0776454 222.304224,18.0776454 L213.56578,18.0776454 C213.178013,18.0776454 212.851729,17.7799478 212.851729,17.407534 L212.851729,8.35869575 C212.851729,7.97168893 213.162186,7.65881464 213.56578,7.65881464 L214.993881,7.65881464 L214.993881,7.65881464 Z" id="Shape" fill="#FFFFFF" sketch:type="MSShapeGroup"></path>
                <path d="M226.150844,12.8685219 C226.150844,15.1006698 227.066995,16.3358228 229.394812,16.3358228 C231.723238,16.3358228 232.638781,15.1006698 232.638781,12.8685219 C232.638781,10.6357902 231.723238,9.4006372 229.394812,9.4006372 C227.066995,9.4006372 226.150844,10.6357902 226.150844,12.8685219 M229.394812,7.43583333 C233.275521,7.43583333 235.494983,8.99845364 235.494983,12.8685219 C235.494983,16.7380064 233.275521,18.3012104 229.394812,18.3012104 C225.514712,18.3012104 223.29525,16.7380064 223.29525,12.8685219 C223.29525,8.99845364 225.514712,7.43583333 229.394812,7.43583333" id="Shape" fill="#FFFFFF" sketch:type="MSShapeGroup"></path>
                <path d="M243.772003,14.3570096 C243.384236,14.3570096 243.057952,14.0441353 243.057952,13.6723053 L243.057952,13.1060962 C243.057952,12.7348498 243.384236,12.4219755 243.772003,12.4219755 L247.574793,12.4219755 C247.963169,12.4219755 248.288844,12.7348498 248.288844,13.1060962 L248.288844,13.9098796 C248.288844,16.5891576 246.612377,18.1371849 243.275881,18.1371849 L241.568369,18.1371849 C238.278136,18.1371849 236.368523,16.4852553 236.368523,12.8685219 C236.368523,9.25178842 238.278136,7.59985885 241.987181,7.59985885 L243.679474,7.59985885 C245.789971,7.59985885 248.041087,8.68616307 248.041087,10.2791368 C248.041087,10.9486645 247.465829,11.0829202 247.264337,11.0829202 L246.364621,11.0829202 C245.929981,11.0829202 245.603697,10.8739482 245.339505,10.3982159 C245.060703,9.89213002 244.346652,9.65338826 243.415282,9.65338826 L242.064491,9.65338826 C239.829811,9.65338826 239.224116,10.4425786 239.224116,12.8685219 C239.224116,15.2944651 239.829811,16.0830717 241.645678,16.0830717 L243.197962,16.0830717 C244.904865,16.0830717 245.463688,15.3983674 245.479515,14.3570096 L243.772003,14.3570096 L243.772003,14.3570096 Z" id="Shape" fill="#FFFFFF" sketch:type="MSShapeGroup"></path>
                <path d="M249.731555,8.34351902 C249.731555,7.95709592 250.05723,7.65881464 250.445605,7.65881464 L251.857879,7.65881464 C252.260864,7.65881464 252.587148,7.95709592 252.587148,8.34351902 L252.587148,17.392941 C252.587148,17.7653548 252.260864,18.0776454 251.857879,18.0776454 L250.445605,18.0776454 C250.05723,18.0776454 249.731555,17.7799478 249.731555,17.407534 L249.731555,8.34351902 L249.731555,8.34351902 Z" id="Shape" fill="#FFFFFF" sketch:type="MSShapeGroup"></path>
                <path d="M264.695569,8.34351902 L264.695569,9.02880711 C264.695569,9.41523022 264.369894,9.71351149 263.981519,9.71351149 L257.385226,9.71351149 L257.385226,11.8265804 L263.065976,11.8265804 C263.454351,11.8265804 263.780026,12.138871 263.780026,12.5112848 L263.780026,13.1959892 C263.780026,13.5678193 263.454351,13.8801098 263.065976,13.8801098 L257.385226,13.8801098 L257.385226,16.0235322 L263.9663,16.0235322 C264.354067,16.0235322 264.664524,16.3212298 264.664524,16.6936436 L264.664524,17.392941 C264.664524,17.7653548 264.354067,18.0776454 263.950473,18.0776454 L255.243683,18.0776454 C254.84009,18.0776454 254.529633,17.7653548 254.529633,17.378348 L254.529633,8.328926 C254.529633,7.95709592 254.855308,7.65881464 255.243683,7.65881464 L263.981519,7.65881464 C264.369894,7.65881464 264.695569,7.95709592 264.695569,8.34351902" id="Shape" fill="#FFFFFF" sketch:type="MSShapeGroup"></path>
                <path d="M270.286225,7.59985885 L272.210449,7.59985885 C274.166326,7.59985885 276.261605,8.68616307 276.261605,10.2791368 C276.261605,10.9486645 275.687564,11.0829202 275.485463,11.0829202 L274.585747,11.0829202 C274.151107,11.0829202 273.809605,10.889125 273.56124,10.3982159 C273.312874,9.89213002 272.723007,9.65397198 271.947473,9.65397198 L269.664703,9.65397198 C268.733942,9.65397198 268.330348,9.96626255 268.330348,10.4869414 C268.330348,12.2135872 276.541016,11.2165923 276.541016,15.1012535 C276.541016,16.8868551 275.454417,18.1371849 271.729545,18.1371849 L269.432774,18.1371849 C267.476896,18.1371849 265.381009,17.0502969 265.381009,15.4584906 C265.381009,14.7883792 265.955658,14.6547072 266.15776,14.6547072 L267.057475,14.6547072 C267.492115,14.6547072 267.834226,14.8479187 268.081983,15.3394116 C268.330348,15.8454974 268.920216,16.0830717 269.696358,16.0830717 L272.350458,16.0830717 C273.281829,16.0830717 273.685422,15.7707812 273.685422,15.2495186 C273.685422,13.5234565 265.474755,14.4912654 265.474755,10.6357902 C265.474755,8.85018858 266.561353,7.59985885 270.286225,7.59985885" id="Shape" fill="#FFFFFF" sketch:type="MSShapeGroup"></path>
            </g>
        </g>
    </g>
</svg>