<?xml version="1.0" encoding="UTF-8" standalone="no"?>
<svg width="600px" height="150px" viewBox="0 0 600 150" version="1.1" xmlns="http://www.w3.org/2000/svg" xmlns:xlink="http://www.w3.org/1999/xlink" xmlns:sketch="http://www.bohemiancoding.com/sketch/ns">
    <!-- Generator: Sketch 3.3.3 (12072) - http://www.bohemiancoding.com/sketch -->
    <title>logo_Intuicom</title>
    <desc>Created with Sketch.</desc>
    <defs></defs>
    <g id="Page-1" stroke="none" stroke-width="1" fill="none" fill-rule="evenodd" sketch:type="MSPage">
        <g id="logo_Intuicom" sketch:type="MSArtboardGroup">
            <g id="Group" sketch:type="MSLayerGroup" transform="translate(149.000000, 23.000000)">
                <g transform="translate(10.157242, 27.572017)" id="Shape" fill="#1179BF" sketch:type="MSShapeGroup">
                    <path d="M1.42352366,49.5772961 L14.5978323,49.5772961 C18.9288359,49.6075857 22.5682219,47.2012476 22.5682219,44.3136419 L22.5682219,5.55308795 C22.5682219,2.6587512 18.9288359,0.222123518 14.5978323,0.222123518 L1.42352366,0.222123518 L1.42352366,3.02895706 L5.33821374,3.02895706 C9.67928944,3.02895706 13.2817444,5.45212272 13.2817444,8.34645947 L13.2817444,41.5202703 C13.2817444,44.380952 9.67928944,46.8209452 5.33821374,46.8209452 L1.42352366,46.8209452 L1.42352366,49.6075857 L1.42352366,49.5772961"></path>
                </g>
                <g transform="translate(37.016179, 27.572017)" id="Shape" fill="#1179BF" sketch:type="MSShapeGroup">
                    <path d="M22.4406419,0.215392502 L9.26969065,0.215392502 C4.92525758,0.215392502 1.29258635,2.65202019 1.29258635,5.54972244 L1.29258635,44.3102763 C1.29258635,47.2046131 4.92525758,49.6042202 9.26969065,49.6042202 L22.4406419,49.6042202 L22.4406419,46.8142142 L18.5158797,46.8142142 C14.1781614,46.8142142 10.5757065,44.3843175 10.5757065,41.5135393 L10.5757065,8.34645947 C10.5757065,5.44202619 14.1781614,3.03232257 18.5158797,3.03232257 L22.4406419,3.03232257 L22.4406419,0.215392502"></path>
                </g>
                <g transform="translate(26.944078, 17.475494)" id="Shape" fill="#1179BF" sketch:type="MSShapeGroup">
                    <path d="M0.191369927,5.573281 C0.191369927,3.40252844 3.96169322,1.65919537 8.59821723,1.65919537 C13.2380986,1.65919537 17.0084219,3.40252844 17.0084219,5.573281 C17.0084219,7.77432313 13.2380986,9.52775272 8.59821723,9.52775272 C3.96169322,9.52775272 0.191369927,7.77432313 0.191369927,5.573281"></path>
                </g>
                <g transform="translate(6.799875, 0.647954)" id="Shape" fill="#1179BF" sketch:type="MSShapeGroup">
                    <path d="M0.678188161,4.73863505 C0.678188161,2.1438285 13.2448133,0 28.7491348,0 C44.2601709,0 56.8200814,2.1438285 56.8200814,4.73863505 C56.8200814,6.25311358 52.7610245,7.57239266 46.3988138,8.45079021 C46.6069705,8.18154958 46.7278358,7.87528837 46.7278358,7.58248918 C46.7278358,5.1458615 38.6634399,3.16021187 28.7491348,3.16021187 C18.8046133,3.16021187 10.7737911,5.1458615 10.7737911,7.58248918 C10.7737911,7.87528837 10.8980137,8.18154958 11.1028131,8.45079021 C4.74395976,7.57239266 0.678188161,6.25311358 0.678188161,4.73863505"></path>
                </g>
                <g transform="translate(0.085140, 10.744478)" id="Shape" fill="#1179BF" sketch:type="MSShapeGroup">
                    <path d="M0,7.15170418 C0,3.82658242 15.8837039,1.16446572 35.463869,1.16446572 C55.0473915,1.16446572 70.8941644,3.82658242 70.8941644,7.15170418 C70.8941644,9.03302307 65.7708221,10.722508 57.7500721,11.802836 C58.0153041,11.4561887 58.1663856,11.0927139 58.1663856,10.729239 C58.1663856,7.64306833 47.9969205,5.1458615 35.463869,5.1458615 C22.9341749,5.1458615 12.7613525,7.64306833 12.7613525,10.729239 C12.7613525,11.0927139 12.8990045,11.4561887 13.177666,11.802836 C5.13677171,10.722508 0,9.03302307 0,7.15170418"></path>
                </g>
                <g transform="translate(63.875116, 37.668541)" id="Shape" fill="#1179BF" sketch:type="MSShapeGroup">
                    <path d="M11.0188789,7.17526273 C12.3786126,5.97714194 13.9465031,4.77565564 15.829986,3.38233539 C17.9753436,1.83420178 19.7581056,0.888494072 21.98404,0.888494072 C27.846003,0.888494072 31.0825049,5.55645346 31.0825049,12.3648758 L31.0825049,31.5751946 C31.0825049,36.4147949 31.4417432,36.7244217 35.6048784,37.2326133 L35.6048784,38.8749812 L20.4027201,38.8749812 L20.4027201,37.2258823 C25.1332504,36.7210561 25.4992034,36.4147949 25.4992034,31.5751946 L25.4992034,15.0202615 C25.4992034,10.0224824 24.1226828,5.72136334 18.8281149,5.72136334 C16.0347854,5.72136334 13.1675939,7.52527555 11.0188789,9.77006929 L11.0188789,31.5751946 C11.0188789,36.4147949 11.3814746,36.7042286 15.591613,37.2124203 L15.591613,38.8648846 L0.104078381,38.8648846 L0.104078381,37.2326133 C5.07298174,36.7244217 5.44229212,36.4147949 5.44229212,31.5751946 L5.44229212,11.6614847 C5.44229212,6.5156232 5.27778113,5.31413689 0.547250843,4.62757329 L0.547250843,2.0563253 L11.0188789,2.0563253 L11.0188789,7.17526273"></path>
                </g>
                <g transform="translate(97.448787, 27.572017)" id="Shape" fill="#1179BF" sketch:type="MSShapeGroup">
                    <path d="M13.6107664,14.7240968 L13.6107664,37.4816609 C13.6107664,44.2160421 16.2563717,45.4141629 18.1835004,45.4141629 C19.4760867,45.4141629 21.0943377,45.1179982 22.7226608,44.4045106 L23.9581719,47.2012476 L19.9696197,48.6113954 C18.5662402,49.085932 16.4108105,49.8902884 15.1081521,49.9003849 C10.5354181,49.9508675 8.03082218,46.3598706 8.03082218,39.4740416 C8.03082218,39.4740416 8.01067798,19.6444693 8.02746481,19.6444693 C7.96703221,17.2280347 5.74781253,15.2053645 1.21200953,14.7039038 C1.19858007,14.7039038 1.21200953,12.1528488 1.21200953,12.1528488 L8.03082218,12.1360213 L8.03082218,0.228854534 L10.7301454,0.245682073 L13.6107664,0.245682073 L13.6107664,12.1360213 L20.2449238,12.1360213 C20.2449238,12.1360213 20.2617106,14.7240968 20.2449238,14.7240968 C15.7024061,15.222192 13.6611269,17.2347657 13.6040516,19.6545658"></path>
                </g>
                <g transform="translate(120.950357, 37.668541)" id="Shape" fill="#1179BF" sketch:type="MSShapeGroup">
                    <path d="M26.7750029,38.8581536 L26.7750029,33.8199884 C25.1500372,35.3647565 23.2296232,37.104724 21.3729992,38.3802515 C19.26793,39.8644405 17.485168,40.4702319 15.7091208,40.4702319 C10.6159949,40.4702319 6.72816373,37.2729994 6.72816373,28.6438373 L6.71809163,9.77343479 C6.71809163,6.57956785 6.05669031,5.1458615 1.8901977,4.62757329 L1.8901977,2.04286326 L12.3316095,2.04286326 L12.3316095,25.6014182 C12.3316095,33.6315199 15.4103151,35.5498594 18.6199581,35.5498594 C21.1279114,35.5498594 23.8608082,34.1733667 26.7750029,31.1410441 L26.7750029,9.85084147 C26.7615734,6.58629886 26.2713978,5.15595803 21.9706105,4.62757329 L21.9706105,2.04286326 L32.4086649,2.04286326 L32.4086649,32.0228072 C32.2911571,36.010934 34.1444237,36.8758695 37.2332015,37.2258823 L37.2332015,38.8581536 L26.7750029,38.8581536"></path>
                </g>
                <g transform="translate(161.238763, 37.668541)" id="Shape" fill="#1179BF" sketch:type="MSShapeGroup">
                    <path d="M12.9426503,31.5953877 C12.9426503,36.4316225 13.3119607,36.7412492 18.1197104,37.2494409 L18.1197104,38.8615191 L2.26958018,38.8648846 L2.26958018,37.2258823 C6.9967531,36.7210561 7.36270612,36.4316225 7.36270612,31.5953877 L7.36270612,11.6816777 C7.36270612,6.52235421 7.22841144,5.28384732 2.50459588,4.62084228 L2.50459588,2.04286326 L12.9426503,2.04286326 L12.9426503,31.5953877"></path>
                </g>
                <g transform="translate(161.238763, 27.572017)" id="Shape" fill="#1179BF" sketch:type="MSShapeGroup">
                    <path d="M1.75590301,4.93720001 C1.75590301,3.37560437 4.43843935,2.12026995 7.78909175,2.12026995 C11.0960984,2.12026995 13.8155658,3.37560437 13.8155658,4.93720001 C13.8155658,6.5156232 11.0960984,7.78441966 7.78909175,7.78441966 C4.43843935,7.78441966 1.75590301,6.5156232 1.75590301,4.93720001"></path>
                </g>
                <g transform="translate(181.382966, 37.668541)" id="Shape" fill="#1179BF" sketch:type="MSShapeGroup">
                    <path d="M26.6675671,30.4982321 C23.7197988,35.8426586 19.1907105,39.8038613 15.1081521,39.8038613 C6.00297243,39.8038613 0.298805675,31.1107546 0.298805675,21.6301189 C0.298805675,15.1515163 2.84704733,9.36620834 6.80874055,5.51270186 C11.0960984,1.27552747 16.0381428,0.329819769 18.4957355,0.329819769 C20.1442028,0.329819769 23.2296232,1.12407962 24.8075857,2.66884772 C25.294404,3.1736739 25.4992034,3.67850008 25.4992034,4.56362864 C25.4992034,6.46514058 24.0790371,8.35655599 23.1423316,8.35655599 C22.8603128,8.35655599 22.5816513,8.26232177 22.0612594,7.75749559 C19.26793,4.72517302 16.9211303,4.0285129 14.6213339,4.0285129 C11.0960984,4.0285129 6.00297243,7.82144024 6.00297243,17.7463229 C6.00297243,30.7607417 13.6879858,34.2137528 17.1997918,34.2137528 C20.3557169,34.2137528 21.9370368,33.3252587 25.7342191,29.3741525 L26.6675671,30.4982321"></path>
                </g>
                <g transform="translate(208.241903, 37.668541)" id="Shape" fill="#1179BF" sketch:type="MSShapeGroup">
                    <path d="M28.1280218,21.5930984 C28.3865391,12.0182285 25.3984824,3.1736739 18.8784754,3.00539851 C14.0673683,2.85395066 10.0485998,8.575314 9.8068694,17.6049716 C9.50134899,28.5697961 12.7311362,36.9936623 18.9590522,37.1518411 C23.4075637,37.2931925 27.7989999,33.2175625 28.1280218,21.5930984 M3.19621351,20.6271976 C3.60916967,6.15887936 12.3718979,0.0168275392 18.8784754,0.208661487 C27.973583,0.477902115 34.997195,9.0902367 34.695032,19.8665928 C34.3190068,33.3185277 26.1169589,40.0057918 18.8784754,39.8105923 C8.77280032,39.5278897 2.95112571,29.569352 3.19621351,20.6271976"></path>
                </g>
                <g transform="translate(241.815574, 37.668541)" id="Shape" fill="#1179BF" sketch:type="MSShapeGroup">
                    <path d="M7.74880334,11.6816777 C7.74880334,6.52235421 7.56079078,5.29394385 2.83361786,4.62757329 L2.82018839,2.04286326 L13.3086033,2.04286326 L13.3253902,7.2021868 C14.6951959,6.09493472 16.2026538,4.89008291 18.2237888,3.40252844 C20.365789,1.85776033 22.1451936,0.908687119 24.6531469,0.908687119 C28.2488871,0.908687119 31.4753169,3.40252844 32.7410443,7.63970282 C34.7655367,5.83915612 36.9881137,4.10255407 38.1195464,3.34194929 C40.2884056,1.85776033 42.084597,0.908687119 44.4313966,0.908687119 C50.2530712,0.908687119 53.4862158,5.55645346 53.4862158,12.3817034 L53.4862158,31.5953877 C53.4862158,36.4316225 53.8185951,36.7210561 57.9817304,37.2258823 L57.9817304,38.8682502 L42.8064309,38.8682502 L42.7930015,37.2427099 C47.516817,36.7345182 47.8659832,36.4316225 47.8659832,31.5953877 L47.8659832,15.0337236 C47.8659832,10.0426754 46.5331085,5.7449219 41.2217537,5.7449219 C38.7037283,5.7449219 35.9003268,7.12814562 33.2715083,9.88113105 C33.3453704,10.8268388 33.3957309,11.5268644 33.3957309,12.2841036 L33.3957309,31.5953877 C33.3957309,36.4316225 33.7516118,36.7075941 37.9986812,37.2124203 L37.9986812,38.8648846 L22.7998802,38.8648846 L22.7998802,37.2258823 C27.4464763,36.7210561 27.809072,36.4316225 27.809072,31.5953877 L27.809072,14.7173658 C27.809072,9.6892971 26.3083289,5.7449219 21.3763565,5.7449219 C18.5058076,5.7449219 15.6386161,7.5454686 13.3321049,9.78689683 L13.3321049,31.5953877 C13.3321049,36.4316225 13.6913432,36.7210561 17.9753436,37.2258823 L17.9753436,38.8749812 L2.42737644,38.8749812 L2.42737644,37.2258823 C7.36270612,36.7210561 7.74880334,36.4316225 7.74880334,31.5953877 L7.74880334,11.6816777"></path>
                </g>
                <g transform="translate(10.157242, 27.572017)" id="Shape" stroke="#0566A6" stroke-width="1.04577" sketch:type="MSShapeGroup">
                    <path d="M1.42352366,49.5772961 L14.5978323,49.5772961 C18.9288359,49.6075857 22.5682219,47.2012476 22.5682219,44.3136419 L22.5682219,5.55308795 C22.5682219,2.6587512 18.9288359,0.222123518 14.5978323,0.222123518 L1.42352366,0.222123518 L1.42352366,3.02895706 L5.33821374,3.02895706 C9.67928944,3.02895706 13.2817444,5.45212272 13.2817444,8.34645947 L13.2817444,41.5202703 C13.2817444,44.380952 9.67928944,46.8209452 5.33821374,46.8209452 L1.42352366,46.8209452 L1.42352366,49.6075857 L1.42352366,49.5772961 L1.42352366,49.5772961 Z"></path>
                </g>
                <g transform="translate(37.016179, 27.572017)" id="Shape" stroke="#0566A6" stroke-width="1.04577" sketch:type="MSShapeGroup">
                    <path d="M22.4406419,0.215392502 L9.26969065,0.215392502 C4.92525758,0.215392502 1.29258635,2.65202019 1.29258635,5.54972244 L1.29258635,44.3102763 C1.29258635,47.2046131 4.92525758,49.6042202 9.26969065,49.6042202 L22.4406419,49.6042202 L22.4406419,46.8142142 L18.5158797,46.8142142 C14.1781614,46.8142142 10.5757065,44.3843175 10.5757065,41.5135393 L10.5757065,8.34645947 C10.5757065,5.44202619 14.1781614,3.03232257 18.5158797,3.03232257 L22.4406419,3.03232257 L22.4406419,0.215392502 L22.4406419,0.215392502 Z"></path>
                </g>
                <g transform="translate(26.944078, 17.475494)" id="Shape" stroke="#0566A6" stroke-width="1.04577" sketch:type="MSShapeGroup">
                    <path d="M0.191369927,5.573281 C0.191369927,3.40252844 3.96169322,1.65919537 8.59821723,1.65919537 C13.2380986,1.65919537 17.0084219,3.40252844 17.0084219,5.573281 C17.0084219,7.77432313 13.2380986,9.52775272 8.59821723,9.52775272 C3.96169322,9.52775272 0.191369927,7.77432313 0.191369927,5.573281 L0.191369927,5.573281 Z"></path>
                </g>
                <g transform="translate(6.799875, 0.647954)" id="Shape" stroke="#0566A6" stroke-width="1.04577" sketch:type="MSShapeGroup">
                    <path d="M0.678188161,4.73863505 C0.678188161,2.1438285 13.2448133,0 28.7491348,0 C44.2601709,0 56.8200814,2.1438285 56.8200814,4.73863505 C56.8200814,6.25311358 52.7610245,7.57239266 46.3988138,8.45079021 C46.6069705,8.18154958 46.7278358,7.87528837 46.7278358,7.58248918 C46.7278358,5.1458615 38.6634399,3.16021187 28.7491348,3.16021187 C18.8046133,3.16021187 10.7737911,5.1458615 10.7737911,7.58248918 C10.7737911,7.87528837 10.8980137,8.18154958 11.1028131,8.45079021 C4.74395976,7.57239266 0.678188161,6.25311358 0.678188161,4.73863505 L0.678188161,4.73863505 Z"></path>
                </g>
                <g transform="translate(0.085140, 10.744478)" id="Shape" stroke="#0566A6" stroke-width="1.04577" sketch:type="MSShapeGroup">
                    <path d="M0,7.15170418 C0,3.82658242 15.8837039,1.16446572 35.463869,1.16446572 C55.0473915,1.16446572 70.8941644,3.82658242 70.8941644,7.15170418 C70.8941644,9.03302307 65.7708221,10.722508 57.7500721,11.802836 C58.0153041,11.4561887 58.1663856,11.0927139 58.1663856,10.729239 C58.1663856,7.64306833 47.9969205,5.1458615 35.463869,5.1458615 C22.9341749,5.1458615 12.7613525,7.64306833 12.7613525,10.729239 C12.7613525,11.0927139 12.8990045,11.4561887 13.177666,11.802836 C5.13677171,10.722508 0,9.03302307 0,7.15170418 L0,7.15170418 Z"></path>
                </g>
                <g transform="translate(63.875116, 37.668541)" id="Shape" stroke="#0566A6" stroke-width="1.04577" sketch:type="MSShapeGroup">
                    <path d="M11.0188789,7.17526273 C12.3786126,5.97714194 13.9465031,4.77565564 15.829986,3.38233539 C17.9753436,1.83420178 19.7581056,0.888494072 21.98404,0.888494072 C27.846003,0.888494072 31.0825049,5.55645346 31.0825049,12.3648758 L31.0825049,31.5751946 C31.0825049,36.4147949 31.4417432,36.7244217 35.6048784,37.2326133 L35.6048784,38.8749812 L20.4027201,38.8749812 L20.4027201,37.2258823 C25.1332504,36.7210561 25.4992034,36.4147949 25.4992034,31.5751946 L25.4992034,15.0202615 C25.4992034,10.0224824 24.1226828,5.72136334 18.8281149,5.72136334 C16.0347854,5.72136334 13.1675939,7.52527555 11.0188789,9.77006929 L11.0188789,31.5751946 C11.0188789,36.4147949 11.3814746,36.7042286 15.591613,37.2124203 L15.591613,38.8648846 L0.104078381,38.8648846 L0.104078381,37.2326133 C5.07298174,36.7244217 5.44229212,36.4147949 5.44229212,31.5751946 L5.44229212,11.6614847 C5.44229212,6.5156232 5.27778113,5.31413689 0.547250843,4.62757329 L0.547250843,2.0563253 L11.0188789,2.0563253 L11.0188789,7.17526273 L11.0188789,7.17526273 Z"></path>
                </g>
                <g transform="translate(97.448787, 27.572017)" id="Shape" stroke="#0566A6" stroke-width="1.04577" sketch:type="MSShapeGroup">
                    <path d="M13.6107664,14.7240968 L13.6107664,37.4816609 C13.6107664,44.2160421 16.2563717,45.4141629 18.1835004,45.4141629 C19.4760867,45.4141629 21.0943377,45.1179982 22.7226608,44.4045106 L23.9581719,47.2012476 L19.9696197,48.6113954 C18.5662402,49.085932 16.4108105,49.8902884 15.1081521,49.9003849 C10.5354181,49.9508675 8.03082218,46.3598706 8.03082218,39.4740416 C8.03082218,39.4740416 8.01067798,19.6444693 8.02746481,19.6444693 C7.96703221,17.2280347 5.74781253,15.2053645 1.21200953,14.7039038 C1.19858007,14.7039038 1.21200953,12.1528488 1.21200953,12.1528488 L8.03082218,12.1360213 L8.03082218,0.228854534 L10.7301454,0.245682073 L13.6107664,0.245682073 L13.6107664,12.1360213 L20.2449238,12.1360213 C20.2449238,12.1360213 20.2617106,14.7240968 20.2449238,14.7240968 C15.7024061,15.222192 13.6611269,17.2347657 13.6040516,19.6545658"></path>
                </g>
                <g transform="translate(120.950357, 37.668541)" id="Shape" stroke="#0566A6" stroke-width="1.04577" sketch:type="MSShapeGroup">
                    <path d="M26.7750029,38.8581536 L26.7750029,33.8199884 C25.1500372,35.3647565 23.2296232,37.104724 21.3729992,38.3802515 C19.26793,39.8644405 17.485168,40.4702319 15.7091208,40.4702319 C10.6159949,40.4702319 6.72816373,37.2729994 6.72816373,28.6438373 L6.71809163,9.77343479 C6.71809163,6.57956785 6.05669031,5.1458615 1.8901977,4.62757329 L1.8901977,2.04286326 L12.3316095,2.04286326 L12.3316095,25.6014182 C12.3316095,33.6315199 15.4103151,35.5498594 18.6199581,35.5498594 C21.1279114,35.5498594 23.8608082,34.1733667 26.7750029,31.1410441 L26.7750029,9.85084147 C26.7615734,6.58629886 26.2713978,5.15595803 21.9706105,4.62757329 L21.9706105,2.04286326 L32.4086649,2.04286326 L32.4086649,32.0228072 C32.2911571,36.010934 34.1444237,36.8758695 37.2332015,37.2258823 L37.2332015,38.8581536 L26.7750029,38.8581536 L26.7750029,38.8581536 Z"></path>
                </g>
                <g transform="translate(161.238763, 37.668541)" id="Shape" stroke="#0566A6" stroke-width="1.04577" sketch:type="MSShapeGroup">
                    <path d="M12.9426503,31.5953877 C12.9426503,36.4316225 13.3119607,36.7412492 18.1197104,37.2494409 L18.1197104,38.8615191 L2.26958018,38.8648846 L2.26958018,37.2258823 C6.9967531,36.7210561 7.36270612,36.4316225 7.36270612,31.5953877 L7.36270612,11.6816777 C7.36270612,6.52235421 7.22841144,5.28384732 2.50459588,4.62084228 L2.50459588,2.04286326 L12.9426503,2.04286326 L12.9426503,31.5953877 L12.9426503,31.5953877 Z"></path>
                </g>
                <g transform="translate(161.238763, 27.572017)" id="Shape" stroke="#0566A6" stroke-width="1.04577" sketch:type="MSShapeGroup">
                    <path d="M1.75590301,4.93720001 C1.75590301,3.37560437 4.43843935,2.12026995 7.78909175,2.12026995 C11.0960984,2.12026995 13.8155658,3.37560437 13.8155658,4.93720001 C13.8155658,6.5156232 11.0960984,7.78441966 7.78909175,7.78441966 C4.43843935,7.78441966 1.75590301,6.5156232 1.75590301,4.93720001 L1.75590301,4.93720001 Z"></path>
                </g>
                <g transform="translate(181.382966, 37.668541)" id="Shape" stroke="#0566A6" stroke-width="1.04577" sketch:type="MSShapeGroup">
                    <path d="M26.6675671,30.4982321 C23.7197988,35.8426586 19.1907105,39.8038613 15.1081521,39.8038613 C6.00297243,39.8038613 0.298805675,31.1107546 0.298805675,21.6301189 C0.298805675,15.1515163 2.84704733,9.36620834 6.80874055,5.51270186 C11.0960984,1.27552747 16.0381428,0.329819769 18.4957355,0.329819769 C20.1442028,0.329819769 23.2296232,1.12407962 24.8075857,2.66884772 C25.294404,3.1736739 25.4992034,3.67850008 25.4992034,4.56362864 C25.4992034,6.46514058 24.0790371,8.35655599 23.1423316,8.35655599 C22.8603128,8.35655599 22.5816513,8.26232177 22.0612594,7.75749559 C19.26793,4.72517302 16.9211303,4.0285129 14.6213339,4.0285129 C11.0960984,4.0285129 6.00297243,7.82144024 6.00297243,17.7463229 C6.00297243,30.7607417 13.6879858,34.2137528 17.1997918,34.2137528 C20.3557169,34.2137528 21.9370368,33.3252587 25.7342191,29.3741525 L26.6675671,30.4982321 L26.6675671,30.4982321 Z"></path>
                </g>
                <g transform="translate(208.241903, 37.668541)" id="Shape" stroke="#0566A6" stroke-width="1.04577" sketch:type="MSShapeGroup">
                    <path d="M28.1280218,21.5930984 C28.3865391,12.0182285 25.3984824,3.1736739 18.8784754,3.00539851 C14.0673683,2.85395066 10.0485998,8.575314 9.8068694,17.6049716 C9.50134899,28.5697961 12.7311362,36.9936623 18.9590522,37.1518411 C23.4075637,37.2931925 27.7989999,33.2175625 28.1280218,21.5930984 L28.1280218,21.5930984 Z M3.19621351,20.6271976 C3.60916967,6.15887936 12.3718979,0.0168275392 18.8784754,0.208661487 C27.973583,0.477902115 34.997195,9.0902367 34.695032,19.8665928 C34.3190068,33.3185277 26.1169589,40.0057918 18.8784754,39.8105923 C8.77280032,39.5278897 2.95112571,29.569352 3.19621351,20.6271976 L3.19621351,20.6271976 Z"></path>
                </g>
                <g transform="translate(241.815574, 37.668541)" id="Shape" stroke="#0566A6" stroke-width="1.04577" sketch:type="MSShapeGroup">
                    <path d="M7.74880334,11.6816777 C7.74880334,6.52235421 7.56079078,5.29394385 2.83361786,4.62757329 L2.82018839,2.04286326 L13.3086033,2.04286326 L13.3253902,7.2021868 C14.6951959,6.09493472 16.2026538,4.89008291 18.2237888,3.40252844 C20.365789,1.85776033 22.1451936,0.908687119 24.6531469,0.908687119 C28.2488871,0.908687119 31.4753169,3.40252844 32.7410443,7.63970282 C34.7655367,5.83915612 36.9881137,4.10255407 38.1195464,3.34194929 C40.2884056,1.85776033 42.084597,0.908687119 44.4313966,0.908687119 C50.2530712,0.908687119 53.4862158,5.55645346 53.4862158,12.3817034 L53.4862158,31.5953877 C53.4862158,36.4316225 53.8185951,36.7210561 57.9817304,37.2258823 L57.9817304,38.8682502 L42.8064309,38.8682502 L42.7930015,37.2427099 C47.516817,36.7345182 47.8659832,36.4316225 47.8659832,31.5953877 L47.8659832,15.0337236 C47.8659832,10.0426754 46.5331085,5.7449219 41.2217537,5.7449219 C38.7037283,5.7449219 35.9003268,7.12814562 33.2715083,9.88113105 C33.3453704,10.8268388 33.3957309,11.5268644 33.3957309,12.2841036 L33.3957309,31.5953877 C33.3957309,36.4316225 33.7516118,36.7075941 37.9986812,37.2124203 L37.9986812,38.8648846 L22.7998802,38.8648846 L22.7998802,37.2258823 C27.4464763,36.7210561 27.809072,36.4316225 27.809072,31.5953877 L27.809072,14.7173658 C27.809072,9.6892971 26.3083289,5.7449219 21.3763565,5.7449219 C18.5058076,5.7449219 15.6386161,7.5454686 13.3321049,9.78689683 L13.3321049,31.5953877 C13.3321049,36.4316225 13.6913432,36.7210561 17.9753436,37.2258823 L17.9753436,38.8749812 L2.42737644,38.8749812 L2.42737644,37.2258823 C7.36270612,36.7210561 7.74880334,36.4316225 7.74880334,31.5953877 L7.74880334,11.6816777 L7.74880334,11.6816777 Z"></path>
                </g>
            </g>
        </g>
    </g>
</svg>