<?xml version="1.0" encoding="UTF-8"?>
<svg width="148px" height="39px" viewBox="0 0 148 39" version="1.1" xmlns="http://www.w3.org/2000/svg" xmlns:xlink="http://www.w3.org/1999/xlink">
    <!-- Generator: Sketch 57.1 (83088) - https://sketch.com -->
    <title>logo_Siqura</title>
    <desc>Created with Sketch.</desc>
    <g id="logo_Siqura" stroke="none" stroke-width="1" fill="none" fill-rule="evenodd">
        <g id="Group" transform="translate(10.000000, 10.000000)" fill-rule="nonzero">
            <path d="M3.72413793,3.23703704 L3.72413793,7.31851852 L15.3103448,7.31851852 C17.9310345,7.31851852 20,9.42962963 20,12.1037037 L20,14.2148148 C20,16.8888889 17.9310345,19 15.3103448,19 L4.55172414,19 C2.06896552,19 0.137931034,17.0296296 0.137931034,14.4962963 L0.137931034,13.3703704 L4,13.3703704 L4,15.3407407 L16.137931,15.3407407 L16.137931,10.9777778 L4.55172414,10.9777778 C2.06896552,10.9777778 1.77635684e-15,8.86666667 1.77635684e-15,6.33333333 L1.77635684e-15,4.5037037 C1.77635684e-15,1.97037037 1.93103448,1.77635684e-15 4.4137931,1.77635684e-15 L15.1724138,1.77635684e-15 C18.4827586,1.77635684e-15 19.7241379,0.844444444 19.7241379,4.08148148 L19.7241379,5.06666667 L15.862069,5.06666667 L15.862069,3.23703704 L3.72413793,3.23703704 L3.72413793,3.23703704 Z" id="Path" fill="#6D6E71"></path>
            <polygon id="Path" fill="#C1D52F" points="24 1.77635684e-15 28 1.77635684e-15 28 19 24 19"></polygon>
            <path d="M61.2828947,15.3407407 L73.5789474,15.3407407 L73.5789474,1.77635684e-15 L78,1.77635684e-15 L78,14.4962963 C78,17.0296296 76.0657895,19 73.5789474,19 L61.5592105,19 C59.0723684,19 57,16.8888889 57,14.3555556 L57,1.77635684e-15 L61.2828947,1.77635684e-15 L61.2828947,15.3407407 L61.2828947,15.3407407 Z" id="Path" fill="#6D6E71"></path>
            <path d="M85.2625,3.23703704 L85.2625,8.58518519 L94.8875,8.58518519 C96.2625,8.58518519 96.8125,8.3037037 96.8125,7.03703704 L96.8125,4.78518519 C96.8125,3.51851852 96.2625,3.23703704 94.8875,3.23703704 L85.2625,3.23703704 L85.2625,3.23703704 Z M81.1375,1.77635684e-15 L96.95,1.77635684e-15 C99.8375,1.77635684e-15 101.075,0.985185185 101.075,3.65925926 L101.075,8.16296296 C101.075,10.837037 99.7,11.8222222 96.95,11.8222222 L94.475,11.8222222 L103,19 L96.8125,19 L89.3875,11.8222222 L85.2625,11.8222222 L85.2625,19 L81,19 L81,1.77635684e-15 L81.1375,1.77635684e-15 Z" id="Shape" fill="#6D6E71"></path>
            <path d="M119.256831,11.4 L115.295082,3.65925926 L111.196721,11.4 L119.256831,11.4 L119.256831,11.4 Z M113.382514,1.77635684e-15 L117.480874,1.77635684e-15 L128,19 L123.218579,19 L121.032787,14.9185185 L109.420765,14.9185185 L107.234973,19 L103,19 L113.382514,1.77635684e-15 L113.382514,1.77635684e-15 Z" id="Shape" fill="#6D6E71"></path>
            <path d="M49.4277108,1.77635684e-15 L35.4337349,1.77635684e-15 C32.939759,1.77635684e-15 31,1.90532544 31,4.35502959 L31,13.7455621 C31,16.1952663 33.0783133,18.2366864 35.5722892,18.2366864 L41.9457831,18.2366864 L40.1445783,14.8343195 L35.1566265,14.8343195 L35.1566265,3.26627219 L49.4277108,3.26627219 L49.4277108,14.8343195 L46.1024096,14.8343195 L43.8855422,11.0236686 L40.1445783,11.0236686 L46.6566265,23 L50.813253,23 L48.0421687,18.3727811 L49.5662651,18.3727811 C52.060241,18.3727811 54,16.4674556 54,14.0177515 L54,4.49112426 C54,2.04142012 51.9216867,1.77635684e-15 49.4277108,1.77635684e-15 L49.4277108,1.77635684e-15 Z" id="Path" fill="#C1D52F"></path>
        </g>
    </g>
</svg>