<?xml version="1.0" encoding="UTF-8"?>
<svg width="720px" height="720px" viewBox="0 0 720 720" version="1.1" xmlns="http://www.w3.org/2000/svg" xmlns:xlink="http://www.w3.org/1999/xlink">
    <!-- Generator: Sketch 57.1 (83088) - https://sketch.com -->
    <title>twincrest_shield_2-color</title>
    <desc>Created with Sketch.</desc>
    <g id="twincrest_shield_2-color" stroke="none" stroke-width="1" fill="none" fill-rule="evenodd">
        <g id="Group" transform="translate(152.000000, 99.000000)">
            <path d="M416,286.550719 C416,442.550931 311.999807,468.550902 208,520.550459 C103.999807,468.550324 0,442.550353 0,286.550719 L0,26.547156 C0,26.547156 104.000193,0.550458716 208,0.550458716 C312.000193,0.550458716 416,26.547156 416,26.547156 L416,286.550719 L416,286.550719 Z" id="Shape" fill="#000000"></path>
            <path d="M384.812741,282.599945 C384.812741,369.721805 346.580449,409.034376 295.296771,438.316737 L247.200833,41.354896 C320.729567,46.08099 384.812548,62.0966089 384.812548,62.0966089 L384.812548,282.600137 L384.812741,282.599945 Z M195.907333,474.880624 L195.907333,40.20868 C200.099522,40.1145379 204.297489,40.0492991 208.501232,40.0492991 C212.704148,40.0492991 216.902115,40.1145379 221.094304,40.20868 L221.094304,474.880624 C216.902115,476.895587 212.701664,478.947736 208.501232,481.051058 C204.299973,478.947736 200.099522,476.895587 195.907333,474.880624 L195.907333,474.880624 Z M32.1872593,282.599945 L32.1872593,62.0964162 C32.1872593,62.0964162 96.2702407,46.080701 169.797433,41.3547033 L121.704963,438.316544 C70.4205136,409.034183 32.1874519,369.721612 32.1874519,282.599752 L32.1872593,282.599945 Z M208.5,8.55045872 C107.749615,8.55045872 7,33.7465956 7,33.7465956 L7,285.750353 C7,436.95068 107.749615,462.151056 208.5,512.550459 C309.249615,462.150671 410,436.950295 410,285.750353 L410,33.7465956 C410,33.7465956 309.249615,8.55045872 208.5,8.55045872 L208.5,8.55045872 Z" id="Shape" fill="#FFD200"></path>
        </g>
    </g>
</svg>