<?xml version="1.0" encoding="UTF-8" standalone="no"?>
<svg width="175px" height="200px" viewBox="0 0 175 200" version="1.1" xmlns="http://www.w3.org/2000/svg" xmlns:xlink="http://www.w3.org/1999/xlink" xmlns:sketch="http://www.bohemiancoding.com/sketch/ns">
    <!-- Generator: Sketch 3.3.2 (12043) - http://www.bohemiancoding.com/sketch -->
    <title>logo_ContactUs</title>
    <desc>Created with Sketch.</desc>
    <defs></defs>
    <g id="site-graphics" stroke="none" stroke-width="1" fill="none" fill-rule="evenodd" sketch:type="MSPage">
        <g id="logo_ContactUs" sketch:type="MSArtboardGroup">
            <g id="Group" sketch:type="MSLayerGroup" transform="translate(31.000000, 26.001866)">
                <g transform="translate(10.541045, 16.865672)" id="Shape" sketch:type="MSShapeGroup">
                    <path d="M91.4996418,63.0358694 C91.4996418,97.1914687 68.7292563,102.884054 45.9589552,114.269142 C23.1885698,102.883928 0.418268657,97.1913422 0.418268657,63.0358694 L0.418268657,6.10916791 C0.418268657,6.10916791 23.1886541,0.417298881 45.9589552,0.417298881 C68.7293407,0.417298881 91.4996418,6.10916791 91.4996418,6.10916791 L91.4996418,63.0358694 L91.4996418,63.0358694 Z" fill="#000000"></path>
                    <path d="M84.5619478,62.1685522 C84.5619478,81.2340556 76.1911354,89.8371082 64.9627724,96.245178 L54.432353,9.37516306 C70.5311847,10.4094082 84.5619056,13.9142213 84.5619056,13.9142213 L84.5619056,62.1685944 L84.5619478,62.1685522 Z M43.2018396,104.246716 L43.2018396,9.12432836 C44.1197031,9.10372656 45.0388316,9.0894499 45.9592251,9.0894499 C46.8794372,9.0894499 47.7985657,9.10372656 48.7164293,9.12432836 L48.7164293,104.246716 C47.7985657,104.687665 46.8788933,105.136752 45.9592251,105.597037 C45.0393756,105.136752 44.1197031,104.687665 43.2018396,104.246716 L43.2018396,104.246716 Z M7.35596269,62.1685522 L7.35596269,13.9141791 C7.35596269,13.9141791 21.3866836,10.409345 37.485178,9.3751209 L26.9555175,96.2451358 C15.7269858,89.837066 7.35600485,81.2340134 7.35600485,62.1685101 L7.35596269,62.1685522 Z M45.9589552,2.19633209 C23.9000481,2.19633209 1.8413097,7.71018396 1.8413097,7.71018396 L1.8413097,62.8579787 C1.8413097,95.946234 23.9000481,101.461013 45.9589552,112.490277 C68.0176937,101.460929 90.0766007,95.9461496 90.0766007,62.8579787 L90.0766007,7.71018396 C90.0766007,7.71018396 68.0176937,2.19633209 45.9589552,2.19633209 L45.9589552,2.19633209 Z" fill="#FFD200"></path>
                </g>
                <path d="M8.76930597,138.909045 C9.0965,138.909045 9.34822015,139.161187 9.34822015,139.487959 L9.34822015,140.067295 C9.34822015,140.394489 9.0965,140.646631 8.76930597,140.646631 L6.02399627,140.646631 L6.02399627,147.15678 C6.02399627,147.472168 5.75962687,147.723466 5.44466045,147.723466 L4.28641045,147.723466 C3.97144403,147.723466 3.70707463,147.472168 3.70707463,147.15678 L3.70707463,140.646631 L0.962186567,140.646631 C0.634570896,140.646631 0.382850746,140.394489 0.382850746,140.067295 L0.382850746,139.487959 C0.382850746,139.161187 0.634570896,138.909045 0.962186567,138.909045 L8.76930597,138.909045 L8.76930597,138.909045 Z" id="Shape" fill="#000000" sketch:type="MSShapeGroup"></path>
                <path d="M18.3861119,139.487959 L18.3861119,140.067295 C18.3861119,140.394489 18.1213209,140.646631 17.8067761,140.646631 L12.4552985,140.646631 L12.4552985,142.434392 L17.0638433,142.434392 C17.3783881,142.434392 17.6431791,142.699183 17.6431791,143.013728 L17.6431791,143.593063 C17.6431791,143.907608 17.3783881,144.172399 17.0638433,144.172399 L12.4552985,144.172399 L12.4552985,145.985459 L17.7941269,145.985459 C18.1090933,145.985459 18.3603918,146.237601 18.3603918,146.552567 L18.3603918,147.144131 C18.3603918,147.458675 18.1090933,147.723466 17.7814776,147.723466 L10.717291,147.723466 C10.390097,147.723466 10.1375336,147.458675 10.1375336,147.131481 L10.1375336,139.475731 C10.1375336,139.161187 10.4023246,138.909045 10.717291,138.909045 L17.8067761,138.909045 C18.1213209,138.909045 18.3861119,139.161187 18.3861119,139.487959" id="Shape" fill="#000000" sketch:type="MSShapeGroup"></path>
                <path d="M23.3711828,138.858869 L24.7436269,138.858869 C26.4563358,138.858869 28.2820448,139.778049 28.2820448,141.56581 C28.2820448,142.132918 27.8161306,142.245918 27.6521119,142.245918 L26.9226716,142.245918 C26.5693358,142.245918 26.2800896,142.082743 26.040597,141.56581 C25.764,140.974246 25.2854366,140.596034 24.5302761,140.596034 L23.4340075,140.596034 C21.6209478,140.596034 21.1301567,141.263493 21.1301567,143.316045 C21.1301567,145.368597 21.6209478,146.036056 23.4340075,146.036056 L24.6555037,146.036056 C25.4115075,146.036056 25.8900709,145.658265 26.1666679,145.066701 C26.4061604,144.550612 26.6954067,144.386593 27.0487425,144.386593 L27.7781828,144.386593 C27.9422015,144.386593 28.4081157,144.500015 28.4081157,145.066701 C28.4081157,146.854463 26.5824067,147.774485 24.8696978,147.774485 L23.3711828,147.774485 C20.3615037,147.774485 18.8123918,146.375899 18.8123918,143.316045 C18.8123918,140.25619 20.3615037,138.858869 23.3711828,138.858869" id="Shape" fill="#000000" sketch:type="MSShapeGroup"></path>
                <path d="M36.0090522,143.996575 L31.7778769,143.996575 L31.7778769,147.15678 C31.7778769,147.472168 31.5135075,147.723888 31.1989627,147.723888 L30.0525187,147.723888 C29.724903,147.723888 29.4605336,147.459097 29.4605336,147.144552 L29.4605336,139.488381 C29.4605336,139.161187 29.724903,138.909466 30.0525187,138.909466 L31.1989627,138.909466 C31.5135075,138.909466 31.7778769,139.161187 31.7778769,139.488381 L31.7778769,142.258567 L36.0090522,142.258567 L36.0090522,139.488381 C36.0090522,139.161187 36.2734216,138.909466 36.5879664,138.909466 L37.7335672,138.909466 C38.0611828,138.909466 38.3255522,139.161187 38.3255522,139.488381 L38.3255522,147.144552 C38.3255522,147.459097 38.0611828,147.723888 37.7335672,147.723888 L36.5879664,147.723888 C36.2734216,147.723888 36.0090522,147.472168 36.0090522,147.15678 L36.0090522,143.996575 L36.0090522,143.996575 Z" id="Shape" fill="#000000" sketch:type="MSShapeGroup"></path>
                <path d="M40.4670709,147.723888 C40.1516828,147.723888 39.8873134,147.459097 39.8873134,147.144552 L39.8873134,139.488381 C39.8873134,139.173836 40.1402985,138.909466 40.4548433,138.909466 L42.267903,138.909466 C42.5693769,138.909466 42.9227127,139.198713 43.1111866,139.488381 L46.8262724,145.205 L46.8262724,139.475731 C46.8262724,139.161187 47.0906418,138.909466 47.4051866,138.909466 L48.4635075,138.909466 C48.7902799,138.909466 49.0424216,139.161187 49.0424216,139.488381 L49.0424216,147.144552 C49.0424216,147.459097 48.7902799,147.723888 48.4635075,147.723888 L46.4236045,147.723888 C46.0959888,147.723888 45.7300037,147.459097 45.5293022,147.144552 L42.1287612,141.868127 L42.1287612,147.144552 C42.1287612,147.459097 41.8643918,147.723888 41.549847,147.723888 L40.4670709,147.723888 L40.4670709,147.723888 Z" id="Shape" fill="#000000" sketch:type="MSShapeGroup"></path>
                <path d="M52.4657313,143.316045 C52.4657313,145.204578 53.2086642,146.25025 55.0976194,146.25025 C56.9869963,146.25025 57.7295075,145.204578 57.7295075,143.316045 C57.7295075,141.427511 56.9869963,140.382261 55.0976194,140.382261 C53.2086642,140.382261 52.4657313,141.427511 52.4657313,143.316045 M55.0976194,138.720149 C58.2460187,138.720149 60.0468507,140.041996 60.0468507,143.316045 C60.0468507,146.590093 58.2460187,147.912362 55.0976194,147.912362 C51.9500634,147.912362 50.1492313,146.590093 50.1492313,143.316045 C50.1492313,140.041996 51.9500634,138.720149 55.0976194,138.720149" id="Shape" fill="#000000" sketch:type="MSShapeGroup"></path>
                <path d="M62.890403,138.909045 C63.2180187,138.909045 63.4701604,139.173414 63.4701604,139.500608 L63.4701604,145.985459 L68.8212164,145.985459 C69.1366045,145.985459 69.4009739,146.237601 69.4009739,146.564795 L69.4009739,147.144131 C69.4009739,147.472168 69.1366045,147.723466 68.8212164,147.723466 L61.7325746,147.723466 C61.4171866,147.723466 61.1528172,147.472168 61.1528172,147.15678 L61.1528172,139.500608 C61.1528172,139.173414 61.4058022,138.909045 61.7325746,138.909045 L62.890403,138.909045 L62.890403,138.909045 Z" id="Shape" fill="#000000" sketch:type="MSShapeGroup"></path>
                <path d="M71.8979366,143.316045 C71.8979366,145.204578 72.6408694,146.25025 74.5298246,146.25025 C76.4183582,146.25025 77.1617127,145.204578 77.1617127,143.316045 C77.1617127,141.427511 76.4183582,140.382261 74.5298246,140.382261 C72.6408694,140.382261 71.8979366,141.427511 71.8979366,143.316045 M74.5302463,138.720149 C77.6778022,138.720149 79.479056,140.041996 79.479056,143.316045 C79.479056,146.590093 77.6778022,147.912362 74.5302463,147.912362 C71.381847,147.912362 69.5810149,146.590093 69.5810149,143.316045 C69.5810149,140.041996 71.381847,138.720149 74.5302463,138.720149" id="Shape" fill="#000000" sketch:type="MSShapeGroup"></path>
                <path d="M86.1540672,144.575489 C85.8395224,144.575489 85.575153,144.311119 85.575153,143.996575 L85.575153,143.51759 C85.575153,143.203045 85.8395224,142.938675 86.1540672,142.938675 L89.2387985,142.938675 C89.5537649,142.938675 89.8177127,143.203045 89.8177127,143.51759 L89.8177127,144.197698 C89.8177127,146.464022 88.4583396,147.774485 85.750556,147.774485 L84.366306,147.774485 C81.6964701,147.774485 80.1473582,146.376321 80.1473582,143.316466 C80.1473582,140.256612 81.6964701,138.858869 84.705306,138.858869 L86.0781716,138.858869 C87.7913022,138.858869 89.6170112,139.778049 89.6170112,141.125194 C89.6170112,141.692302 89.1506754,141.805724 88.9870784,141.805724 L88.2572164,141.805724 C87.9038806,141.805724 87.6395112,141.629056 87.4257388,141.226388 C87.1993172,140.798422 86.6199813,140.596034 85.8639776,140.596034 L84.7689739,140.596034 C82.9554925,140.596034 82.4647015,141.263914 82.4647015,143.316466 C82.4647015,145.369019 82.9554925,146.036478 84.428709,146.036478 L85.688153,146.036478 C87.0732463,146.036478 87.5269328,145.457142 87.5391604,144.575489 L86.1540672,144.575489 L86.1540672,144.575489 Z" id="Shape" fill="#000000" sketch:type="MSShapeGroup"></path>
                <path d="M90.9477127,139.487959 C90.9477127,139.161187 91.2120821,138.909045 91.5274701,138.909045 L92.6730709,138.909045 C93.0006866,138.909045 93.265056,139.161187 93.265056,139.487959 L93.265056,147.144131 C93.265056,147.458675 93.0006866,147.723466 92.6730709,147.723466 L91.5274701,147.723466 C91.2120821,147.723466 90.9477127,147.472168 90.9477127,147.15678 L90.9477127,139.487959 L90.9477127,139.487959 Z" id="Shape" fill="#000000" sketch:type="MSShapeGroup"></path>
                <path d="M103.046724,139.487959 L103.046724,140.067295 C103.046724,140.394489 102.782354,140.646631 102.46781,140.646631 L97.1159104,140.646631 L97.1159104,142.434392 L101.724877,142.434392 C102.039422,142.434392 102.303791,142.699183 102.303791,143.013728 L102.303791,143.593063 C102.303791,143.907608 102.039422,144.172399 101.724877,144.172399 L97.1159104,144.172399 L97.1159104,145.985459 L102.454739,145.985459 C102.770127,145.985459 103.021004,146.237601 103.021004,146.552567 L103.021004,147.144131 C103.021004,147.458675 102.770127,147.723466 102.44209,147.723466 L95.377903,147.723466 C95.0511306,147.723466 94.7989888,147.458675 94.7989888,147.131481 L94.7989888,139.475731 C94.7989888,139.161187 95.0633582,138.909045 95.377903,138.909045 L102.46781,138.909045 C102.782354,138.909045 103.046724,139.161187 103.046724,139.487959" id="Shape" fill="#000000" sketch:type="MSShapeGroup"></path>
                <path d="M107.54269,138.858869 L109.10403,138.858869 C110.69109,138.858869 112.390728,139.778049 112.390728,141.125194 C112.390728,141.692302 111.924813,141.805302 111.760795,141.805302 L111.030933,141.805302 C110.678019,141.805302 110.401,141.641705 110.199455,141.225966 C109.997489,140.798422 109.519769,140.596034 108.889836,140.596034 L107.038828,140.596034 C106.283668,140.596034 105.955631,140.860825 105.955631,141.301862 C105.955631,142.762007 112.617149,141.918724 112.617149,145.205 C112.617149,146.716586 111.735918,147.774485 108.71359,147.774485 L106.849933,147.774485 C105.263295,147.774485 103.563235,146.854463 103.563235,145.507317 C103.563235,144.941052 104.029571,144.827631 104.19359,144.827631 L104.92303,144.827631 C105.275522,144.827631 105.552963,144.990806 105.754929,145.406123 C105.955631,145.834933 106.434194,146.036056 107.064127,146.036056 L109.217873,146.036056 C109.973034,146.036056 110.300649,145.772108 110.300649,145.331493 C110.300649,143.870504 103.639131,144.68891 103.639131,141.427511 C103.639131,139.916769 104.520362,138.858869 107.54269,138.858869" id="Shape" fill="#000000" sketch:type="MSShapeGroup"></path>
                <path d="M19.849209,0.303160448 C20.1957985,0.303160448 20.4626978,0.570059701 20.4626978,0.916649254 L20.4626978,1.53098134 C20.4626978,1.87799254 20.1957985,2.14489179 19.849209,2.14489179 L16.9398806,2.14489179 L16.9398806,9.04379478 C16.9398806,9.37731343 16.6599104,9.64421269 16.3259701,9.64421269 L15.0981493,9.64421269 C14.7646306,9.64421269 14.4842388,9.37731343 14.4842388,9.04379478 L14.4842388,2.14489179 L11.5753321,2.14489179 C11.2283209,2.14489179 10.9614216,1.87799254 10.9614216,1.53098134 L10.9614216,0.916649254 C10.9614216,0.570059701 11.2283209,0.303160448 11.5753321,0.303160448 L19.849209,0.303160448 L19.849209,0.303160448 Z" id="Shape" fill="#000000" sketch:type="MSShapeGroup"></path>
                <path d="M28.8567425,0.303160448 C29.2703731,0.303160448 29.5242015,0.570059701 29.6308769,0.916649254 L31.2192015,6.08133955 L32.9407649,0.916649254 C33.0605112,0.570059701 33.3674664,0.303160448 33.7144776,0.303160448 L35.1421567,0.303160448 C35.436041,0.303160448 35.6759552,0.556567164 35.5692799,0.850029851 L32.6603731,8.97717537 C32.5136418,9.39080597 32.193194,9.64421269 31.7260149,9.64421269 L30.7785858,9.64421269 C30.3114067,9.64421269 29.9778881,9.39080597 29.8442276,8.97717537 L28.2563246,3.95963806 L26.6684216,8.97717537 C26.5351828,9.39080597 26.2012425,9.64421269 25.7340634,9.64421269 L24.7866343,9.64421269 C24.3194552,9.64421269 23.9990075,9.39080597 23.8522761,8.97717537 L20.9433694,0.850029851 C20.836694,0.556567164 21.0770299,0.303160448 21.3704925,0.303160448 L22.7981716,0.303160448 C23.1451828,0.303160448 23.4521381,0.570059701 23.572306,0.916649254 L25.2938694,6.08133955 L26.8817724,0.916649254 C26.9884478,0.570059701 27.2422761,0.303160448 27.6559067,0.303160448 L28.8567425,0.303160448 L28.8567425,0.303160448 Z" id="Shape" fill="#000000" sketch:type="MSShapeGroup"></path>
                <path d="M36.4467164,0.916649254 C36.4467164,0.570059701 36.7271082,0.303160448 37.0606269,0.303160448 L38.2749552,0.303160448 C38.6219664,0.303160448 38.9023582,0.570059701 38.9023582,0.916649254 L38.9023582,9.03030224 C38.9023582,9.36424254 38.6219664,9.64421269 38.2749552,9.64421269 L37.0606269,9.64421269 C36.7271082,9.64421269 36.4467164,9.37731343 36.4467164,9.04379478 L36.4467164,0.916649254 L36.4467164,0.916649254 Z" id="Shape" fill="#000000" sketch:type="MSShapeGroup"></path>
                <path d="M41.1421194,9.64421269 C40.8081791,9.64421269 40.528209,9.3638209 40.528209,9.03030224 L40.528209,0.916649254 C40.528209,0.583130597 40.7955299,0.303160448 41.1286269,0.303160448 L43.0504701,0.303160448 C43.3704963,0.303160448 43.7444925,0.60969403 43.9443507,0.916649254 L47.8812201,6.97522015 L47.8812201,0.903156716 C47.8812201,0.570059701 48.1616119,0.303160448 48.494709,0.303160448 L49.6162761,0.303160448 C49.9628657,0.303160448 50.2297649,0.570059701 50.2297649,0.916649254 L50.2297649,9.03030224 C50.2297649,9.3638209 49.9628657,9.64421269 49.6162761,9.64421269 L47.4545187,9.64421269 C47.1070858,9.64421269 46.7204403,9.3638209 46.5066679,9.03030224 L42.9037388,3.43891045 L42.9037388,9.03030224 C42.9037388,9.3638209 42.6237687,9.64421269 42.2898284,9.64421269 L41.1421194,9.64421269 L41.1421194,9.64421269 Z" id="Shape" fill="#000000" sketch:type="MSShapeGroup"></path>
                <path d="M56.2335224,0.24961194 L57.6881866,0.24961194 C59.5029328,0.24961194 61.4382687,1.22360448 61.4382687,3.11888433 C61.4382687,3.71930224 60.9445261,3.83947015 60.7708097,3.83947015 L59.997097,3.83947015 C59.6231007,3.83947015 59.3165672,3.66617537 59.0627388,3.11888433 C58.7692761,2.49148134 58.2624627,2.09134328 57.4613433,2.09134328 L56.3005634,2.09134328 C54.3787201,2.09134328 53.8584142,2.79843657 53.8584142,4.97368657 C53.8584142,7.14893657 54.3787201,7.85645149 56.3005634,7.85645149 L57.5950037,7.85645149 C58.3957015,7.85645149 58.9025149,7.45547015 59.1959776,6.82891045 C59.449806,6.2816194 59.7563396,6.10832463 60.1303358,6.10832463 L60.9040485,6.10832463 C61.0777649,6.10832463 61.5715075,6.2280709 61.5715075,6.82891045 C61.5715075,8.72334701 59.6361716,9.69776119 57.821847,9.69776119 L56.2335224,9.69776119 C53.0446455,9.69776119 51.4027724,8.21653358 51.4027724,4.97368657 C51.4027724,1.73126119 53.0446455,0.24961194 56.2335224,0.24961194" id="Shape" fill="#000000" sketch:type="MSShapeGroup"></path>
                <path d="M65.1428134,2.14447015 L65.1428134,4.38633955 L67.9184813,4.38633955 C68.6656306,4.38633955 69.6134813,4.1194403 69.6134813,3.26519403 C69.6134813,2.4113694 68.6656306,2.14447015 67.9184813,2.14447015 L65.1428134,2.14447015 L65.1428134,2.14447015 Z M65.1428134,6.2280709 L65.1428134,9.03030224 C65.1428134,9.3638209 64.8759142,9.64421269 64.528903,9.64421269 L63.3010821,9.64421269 C62.9675634,9.64421269 62.6871716,9.3638209 62.6871716,9.03030224 L62.6871716,0.916227612 C62.6871716,0.56963806 62.9544925,0.302738806 63.2880112,0.302738806 L68.6656306,0.302738806 C70.614459,0.302738806 72.0691231,1.42388433 72.0691231,3.26519403 C72.0691231,4.70678731 70.9610485,5.37382463 69.6134813,5.64072388 C70.1603507,5.84100373 70.5609104,6.30776119 71.0942873,7.14893657 L72.2824739,9.03030224 C72.4958246,9.37731343 72.4022201,9.64421269 72.0556306,9.64421269 L70.4938694,9.64421269 C70.1603507,9.64421269 69.7066642,9.37731343 69.4933134,9.03030224 L68.3852388,7.29524627 C68.0517201,6.7749403 67.5714701,6.2280709 66.7307164,6.2280709 L65.1428134,6.2280709 L65.1428134,6.2280709 Z" id="Shape" fill="#000000" sketch:type="MSShapeGroup"></path>
                <path d="M82.0283022,0.916649254 L82.0283022,1.53098134 C82.0283022,1.87799254 81.7479104,2.14489179 81.4143918,2.14489179 L75.7428881,2.14489179 L75.7428881,4.03932836 L80.6271866,4.03932836 C80.9611269,4.03932836 81.241097,4.31972015 81.241097,4.65323881 L81.241097,5.26714925 C81.241097,5.60066791 80.9611269,5.8810597 80.6271866,5.8810597 L75.7428881,5.8810597 L75.7428881,7.80290299 L81.4008993,7.80290299 C81.7348396,7.80290299 82.0017388,8.06980224 82.0017388,8.4033209 L82.0017388,9.03030224 C82.0017388,9.36424254 81.7348396,9.64421269 81.3878284,9.64421269 L73.9015784,9.64421269 C73.5541455,9.64421269 73.2872463,9.36424254 73.2872463,9.0168097 L73.2872463,0.903156716 C73.2872463,0.570059701 73.5676381,0.303160448 73.9015784,0.303160448 L81.4143918,0.303160448 C81.7479104,0.303160448 82.0283022,0.570059701 82.0283022,0.916649254" id="Shape" fill="#000000" sketch:type="MSShapeGroup"></path>
                <path d="M86.7924328,0.24961194 L88.4473769,0.24961194 C90.1284627,0.24961194 91.9301381,1.22360448 91.9301381,2.65170522 C91.9301381,3.25212313 91.4363955,3.37229104 91.2631007,3.37229104 L90.4893881,3.37229104 C90.1153918,3.37229104 89.8219291,3.19857463 89.6085784,2.7583806 C89.394806,2.30511567 88.8875709,2.09134328 88.2205336,2.09134328 L86.2582127,2.09134328 C85.4579366,2.09134328 85.1109254,2.37131343 85.1109254,2.83849254 C85.1109254,4.38676119 92.1704739,3.49245896 92.1704739,6.97564179 C92.1704739,8.57703731 91.2361157,9.69776119 88.0333246,9.69776119 L86.0587761,9.69776119 C84.376847,9.69776119 82.5755933,8.72334701 82.5755933,7.29524627 C82.5755933,6.69525 83.0693358,6.57508209 83.2426306,6.57508209 L84.0167649,6.57508209 C84.3903396,6.57508209 84.6838022,6.74837687 84.8975746,7.18899254 C85.1109254,7.6426791 85.6181604,7.85645149 86.2851978,7.85645149 L88.5671231,7.85645149 C89.3678209,7.85645149 89.7152537,7.5760597 89.7152537,7.1088806 C89.7152537,5.56103358 82.6552836,6.42835075 82.6552836,2.97215299 C82.6552836,1.37075746 83.5896418,0.24961194 86.7924328,0.24961194" id="Shape" fill="#000000" sketch:type="MSShapeGroup"></path>
                <path d="M101.42256,0.303160448 C101.769149,0.303160448 102.036049,0.570059701 102.036049,0.916649254 L102.036049,1.53098134 C102.036049,1.87799254 101.769149,2.14489179 101.42256,2.14489179 L98.5132313,2.14489179 L98.5132313,9.04379478 C98.5132313,9.37731343 98.2332612,9.64421269 97.8993209,9.64421269 L96.6715,9.64421269 C96.3375597,9.64421269 96.0575896,9.37731343 96.0575896,9.04379478 L96.0575896,2.14489179 L93.1486828,2.14489179 C92.8016716,2.14489179 92.5347724,1.87799254 92.5347724,1.53098134 L92.5347724,0.916649254 C92.5347724,0.570059701 92.8016716,0.303160448 93.1486828,0.303160448 L101.42256,0.303160448 L101.42256,0.303160448 Z" id="Shape" fill="#000000" sketch:type="MSShapeGroup"></path>
            </g>
        </g>
    </g>
</svg>