<svg xmlns="http://www.w3.org/2000/svg" width="268" height="351" viewBox="0 0 268 351">
  <g fill="none" fill-rule="evenodd">
    <g transform="translate(25 40)">
      <path fill="#000000" d="M217.008,149.501 C217.008,230.5072 163.0039,244.0082 109,271.01 C54.9959,244.0079 0.992,230.5069 0.992,149.501 L0.992,14.489 C0.992,14.489 54.9961,0.9897 109,0.9897 C163.0041,0.9897 217.008,14.489 217.008,14.489 L217.008,149.501 L217.008,149.501 Z"/>
      <path fill="#FFD200" d="M203.507,147.813 C203.507,194.4888 183.0133,215.5509 155.5248,231.2391 L129.7443,18.5651 C169.157,21.09729 203.5071,29.6779 203.5071,29.6779 L203.5071,147.8129 L203.507,147.813 Z M102.249,250.828 L102.249,17.951 C104.49617,17.9008533 106.74634,17.8652792 108.99951,17.8652792 C111.25268,17.8652792 113.50285,17.9008533 115.75002,17.951 L115.75002,250.828 C113.50285,251.90765 111.25139,253.00702 108.99951,254.13382 C106.74805,253.00702 104.49617,251.90765 102.249,250.828 L102.249,250.828 Z M14.493,147.813 L14.493,29.678 C14.493,29.678 48.843,21.09735 88.2549,18.5652 L62.4765,231.2392 C34.9867,215.551 14.493,194.489 14.493,147.8131 L14.493,147.813 Z M109,0.989 C54.9959,0.989 0.992,14.4887 0.992,14.4887 L0.992,149.5007 C0.992,230.5069 54.9961,244.0079 109,271.0097 C163.0041,244.0076 217.008,230.5066 217.008,149.5007 L217.008,14.4887 C217.008,14.4887 163.0039,0.989 109,0.989 L109,0.989 Z"/>
    </g>
    <path fill="#FFFFFF" d="M20.802 329.448C21.578 329.448 22.175 330.046 22.175 330.821L22.175 332.194C22.175 332.971 21.578 333.568 20.802 333.568L14.291 333.568 14.291 349.008C14.291 349.756 13.664 350.352 12.917 350.352L10.17 350.352C9.423 350.352 8.796 349.756 8.796 349.008L8.796 333.568 2.286 333.568C1.51 333.568.912 332.971.912 332.194L.912 330.821C.912 330.046 1.51 329.448 2.286 329.448L20.802 329.448 20.802 329.448zM43.608 330.821L43.608 332.194C43.608 332.971 42.981 333.568 42.234 333.568L29.542 333.568 29.542 337.808 40.472 337.808C41.219 337.808 41.846 338.436 41.846 339.182L41.846 340.556C41.846 341.302 41.219 341.93 40.472 341.93L29.542 341.93 29.542 346.23 42.204 346.23C42.951 346.23 43.547 346.828 43.547 347.575L43.547 348.978C43.547 349.724 42.951 350.352 42.174 350.352L25.42 350.352C24.645 350.352 24.046 349.724 24.046 348.948L24.046 330.792C24.046 330.046 24.673 329.448 25.42 329.448L42.234 329.448C42.981 329.448 43.608 330.046 43.608 330.821M55.431 329.329L58.687 329.329C62.748 329.329 67.078 331.509 67.078 335.749 67.078 337.094 65.973 337.362 65.585 337.362L63.853 337.362C63.017 337.362 62.33 336.974 61.762 335.749 61.106 334.346 59.971 333.449 58.179 333.449L55.581 333.449C51.281 333.449 50.116 335.032 50.116 339.899 50.116 344.767 51.281 346.35 55.581 346.35L58.478 346.35C60.27 346.35 61.404 345.454 62.061 344.051 62.629 342.827 63.316 342.438 64.152 342.438L65.883 342.438C66.272 342.438 67.377 342.708 67.377 344.051 67.377 348.291 63.046 350.473 58.986 350.473L55.431 350.473C48.294 350.473 44.62 347.156 44.62 339.899 44.62 332.643 48.294 329.329 55.431 329.329M85.402 341.513L75.368 341.513 75.368 349.008C75.368 349.756 74.741 350.353 73.995 350.353L71.277 350.353C70.5 350.353 69.873 349.725 69.873 348.979L69.873 330.822C69.873 330.046 70.5 329.449 71.277 329.449L73.995 329.449C74.741 329.449 75.368 330.046 75.368 330.822L75.368 337.392 85.402 337.392 85.402 330.822C85.402 330.046 86.03 329.449 86.776 329.449L89.494 329.449C90.27 329.449 90.897 330.046 90.897 330.822L90.897 348.979C90.897 349.725 90.27 350.353 89.494 350.353L86.776 350.353C86.03 350.353 85.402 349.756 85.402 349.008L85.402 341.513 85.402 341.513zM95.976 350.352C95.229 350.352 94.602 349.724 94.602 348.978L94.602 330.821C94.602 330.075 95.2 329.448 95.946 329.448L100.247 329.448C100.962 329.448 101.799 330.134 102.247 330.821L111.057 344.379 111.057 330.791C111.057 330.045 111.684 329.448 112.43 329.448L114.94 329.448C115.715 329.448 116.313 330.045 116.313 330.821L116.313 348.978C116.313 349.724 115.715 350.352 114.94 350.352L110.102 350.352C109.325 350.352 108.459 349.724 107.981 348.978L99.918 336.465 99.918 348.978C99.918 349.724 99.291 350.352 98.544 350.352L95.976 350.352 95.976 350.352zM124.433 339.899C124.433 344.379 126.195 346.858 130.674 346.858 135.154 346.858 136.916 344.379 136.916 339.899 136.916 335.42 135.154 332.942 130.674 332.942 126.195 332.942 124.433 335.42 124.433 339.899M130.674 329C138.141 329 142.412 332.134 142.412 339.899 142.412 347.665 138.141 350.8 130.674 350.8 123.208 350.8 118.938 347.665 118.938 339.899 118.938 332.134 123.208 329 130.674 329M149.156 329.448C149.933 329.448 150.53 330.075 150.53 330.851L150.53 346.23 163.222 346.23C163.969 346.23 164.596 346.828 164.596 347.604L164.596 348.978C164.596 349.756 163.969 350.352 163.222 350.352L146.409 350.352C145.663 350.352 145.035 349.756 145.035 349.008L145.035 330.851C145.035 330.075 145.634 329.448 146.409 329.448L149.156 329.448 149.156 329.448zM170.519 339.899C170.519 344.379 172.281 346.858 176.76 346.858 181.24 346.858 183.001 344.379 183.001 339.899 183.001 335.42 181.24 332.942 176.76 332.942 172.281 332.942 170.519 335.42 170.519 339.899M176.76 329C184.226 329 188.498 332.134 188.498 339.899 188.498 347.665 184.226 350.8 176.76 350.8 169.294 350.8 165.024 347.665 165.024 339.899 165.024 332.134 169.294 329 176.76 329M204.327 342.886C203.581 342.886 202.954 342.259 202.954 341.513L202.954 340.377C202.954 339.631 203.581 339.005 204.327 339.005L211.643 339.005C212.39 339.005 213.017 339.631 213.017 340.377L213.017 341.99C213.017 347.365 209.792 350.473 203.371 350.473L200.087 350.473C193.756 350.473 190.082 347.157 190.082 339.9 190.082 332.644 193.756 329.329 200.892 329.329L204.148 329.329C208.21 329.329 212.54 331.509 212.54 334.703 212.54 336.048 211.434 336.317 211.047 336.317L209.314 336.317C208.478 336.317 207.85 335.898 207.344 334.943 206.806 333.928 205.432 333.449 203.64 333.449L201.043 333.449C196.742 333.449 195.577 335.032 195.577 339.9 195.577 344.768 196.742 346.351 200.236 346.351L203.223 346.351C206.508 346.351 207.582 344.977 207.612 342.886L204.327 342.886 204.327 342.886zM215.696 330.821C215.696 330.046 216.323 329.448 217.07 329.448L219.788 329.448C220.564 329.448 221.191 330.046 221.191 330.821L221.191 348.978C221.191 349.724 220.564 350.352 219.788 350.352L217.07 350.352C216.323 350.352 215.696 349.756 215.696 349.008L215.696 330.821 215.696 330.821zM244.391 330.821L244.391 332.194C244.391 332.971 243.764 333.568 243.017 333.568L230.326 333.568 230.326 337.808 241.255 337.808C242.002 337.808 242.629 338.436 242.629 339.182L242.629 340.556C242.629 341.302 242.002 341.93 241.255 341.93L230.326 341.93 230.326 346.23 242.988 346.23C243.734 346.23 244.331 346.828 244.331 347.575L244.331 348.978C244.331 349.724 243.734 350.352 242.958 350.352L226.204 350.352C225.428 350.352 224.83 349.724 224.83 348.948L224.83 330.792C224.83 330.046 225.457 329.448 226.204 329.448L243.017 329.448C243.764 329.448 244.391 330.046 244.391 330.821M255.053 329.329L258.755 329.329C262.519 329.329 266.55 331.509 266.55 334.703 266.55 336.048 265.445 336.316 265.057 336.316L263.325 336.316C262.489 336.316 261.831 335.929 261.354 334.942 260.875 333.928 259.741 333.449 258.248 333.449L253.858 333.449C252.066 333.449 251.289 334.077 251.289 335.122 251.289 338.586 267.088 336.585 267.088 344.38 267.088 347.964 264.997 350.473 257.83 350.473L253.41 350.473C249.648 350.473 245.615 348.291 245.615 345.097 245.615 343.753 246.721 343.484 247.109 343.484L248.841 343.484C249.677 343.484 250.333 343.871 250.812 344.856 251.289 345.873 252.425 346.35 253.917 346.35L259.025 346.35C260.816 346.35 261.593 345.724 261.593 344.679 261.593 341.214 245.795 343.156 245.795 335.42 245.795 331.837 247.885 329.329 255.053 329.329M47.076.719C47.898.719 48.531 1.352 48.531 2.173L48.531 3.629C48.531 4.452 47.898 5.086 47.076 5.086L40.176 5.086 40.176 21.448C40.176 22.24 39.512 22.873 38.72 22.873L35.808 22.873C35.017 22.873 34.352 22.24 34.352 21.448L34.352 5.086 27.453 5.086C26.63 5.086 25.997 4.452 25.997 3.629L25.997 2.173C25.997 1.352 26.63.719 27.453.719L47.076.719 47.076.719zM68.439.719C69.42.719 70.022 1.352 70.275 2.173L74.042 14.423 78.125 2.173C78.409 1.352 79.137.719 79.96.719L83.346.719C84.043.719 84.612 1.32 84.359 2.016L77.46 21.29C77.112 22.272 76.352 22.873 75.244 22.873L72.997 22.873C71.889 22.873 71.098 22.272 70.781 21.29L67.015 9.391 63.249 21.29C62.933 22.272 62.141 22.873 61.033 22.873L58.786 22.873C57.678 22.873 56.918 22.272 56.57 21.29L49.671 2.016C49.418 1.32 49.988.719 50.684.719L54.07.719C54.893.719 55.621 1.352 55.906 2.173L59.989 14.423 63.755 2.173C64.008 1.352 64.61.719 65.591.719L68.439.719 68.439.719zM86.44 2.173C86.44 1.352 87.105.719 87.896.719L90.776.719C91.599.719 92.264 1.352 92.264 2.173L92.264 21.417C92.264 22.208 91.599 22.873 90.776 22.873L87.896 22.873C87.105 22.873 86.44 22.24 86.44 21.448L86.44 2.173 86.44 2.173zM97.576 22.873C96.784 22.873 96.12 22.208 96.12 21.417L96.12 2.173C96.12 1.383 96.754.719 97.544.719L102.102.719C102.861.719 103.748 1.446 104.222 2.173L113.559 16.543 113.559 2.143C113.559 1.352 114.224.719 115.014.719L117.674.719C118.496.719 119.129 1.352 119.129 2.173L119.129 21.417C119.129 22.208 118.496 22.873 117.674 22.873L112.547 22.873C111.723 22.873 110.806 22.208 110.299 21.417L101.754 8.155 101.754 21.417C101.754 22.208 101.09 22.873 100.298 22.873L97.576 22.873 97.576 22.873zM133.368.592L136.818.592C141.122.592 145.712 2.903 145.712 7.396 145.712 8.821 144.541 9.106 144.129 9.106L142.294 9.106C141.407 9.106 140.68 8.695 140.078 7.396 139.382 5.909 138.18 4.959 136.28 4.959L133.527 4.959C128.969 4.959 127.735 6.636 127.735 11.795 127.735 16.954 128.969 18.632 133.527 18.632L136.597 18.632C138.496 18.632 139.698 17.682 140.394 16.195 140.996 14.898 141.723 14.487 142.61 14.487L144.445 14.487C144.857 14.487 146.028 14.771 146.028 16.195 146.028 20.689 141.438 23 137.135 23L133.368 23C125.805 23 121.911 19.486 121.911 11.795 121.911 4.105 125.805.592 133.368.592M154.498 5.086L154.498 10.402 161.081 10.402C162.853 10.402 165.101 9.77 165.101 7.744 165.101 5.719 162.853 5.086 161.081 5.086L154.498 5.086 154.498 5.086zM154.498 14.771L154.498 21.417C154.498 22.208 153.865 22.873 153.042 22.873L150.13 22.873C149.339 22.873 148.674 22.208 148.674 21.417L148.674 2.173C148.674 1.352 149.308.719 150.099.719L162.853.719C167.475.719 170.925 3.377 170.925 7.744 170.925 11.162 168.297 12.745 165.101 13.378 166.398 13.854 167.348 14.96 168.613 16.954L171.431 21.417C171.937 22.24 171.715 22.873 170.893 22.873L167.189 22.873C166.398 22.873 165.322 22.24 164.816 21.417L162.188 17.303C161.397 16.067 160.258 14.771 158.264 14.771L154.498 14.771 154.498 14.771zM194.545 2.173L194.545 3.629C194.545 4.452 193.88 5.086 193.089 5.086L179.638 5.086 179.638 9.579 191.222 9.579C192.014 9.579 192.678 10.244 192.678 11.035L192.678 12.491C192.678 13.282 192.014 13.947 191.222 13.947L179.638 13.947 179.638 18.505 193.057 18.505C193.849 18.505 194.482 19.138 194.482 19.93L194.482 21.417C194.482 22.208 193.849 22.873 193.026 22.873L175.271 22.873C174.447 22.873 173.814 22.208 173.814 21.385L173.814 2.143C173.814 1.352 174.479.719 175.271.719L193.089.719C193.88.719 194.545 1.352 194.545 2.173M205.844.592L209.769.592C213.756.592 218.029 2.903 218.029 6.288 218.029 7.713 216.858 7.998 216.447 7.998L214.612 7.998C213.725 7.998 213.029 7.586 212.523 6.542 212.016 5.466 210.813 4.959 209.231 4.959L204.577 4.959C202.679 4.959 201.856 5.624 201.856 6.733 201.856 10.403 218.599 8.282 218.599 16.543 218.599 20.342 216.383 23 208.787 23L204.104 23C200.115 23 195.843 20.689 195.843 17.303 195.843 15.879 197.014 15.594 197.425 15.594L199.261 15.594C200.147 15.594 200.843 16.004 201.35 17.049 201.856 18.126 203.059 18.632 204.641 18.632L210.053 18.632C211.952 18.632 212.776 17.968 212.776 16.861 212.776 13.188 196.032 15.246 196.032 7.048 196.032 3.25 198.248.592 205.844.592M240.542.719C241.364.719 241.997 1.352 241.997 2.173L241.997 3.629C241.997 4.452 241.364 5.086 240.542 5.086L233.642 5.086 233.642 21.448C233.642 22.24 232.978 22.873 232.186 22.873L229.274 22.873C228.482 22.873 227.818 22.24 227.818 21.448L227.818 5.086 220.919 5.086C220.096 5.086 219.463 4.452 219.463 3.629L219.463 2.173C219.463 1.352 220.096.719 220.919.719L240.542.719 240.542.719z"/>
  </g>
</svg>
