<?xml version="1.0" encoding="UTF-8" standalone="no"?>
<svg width="307px" height="45px" viewBox="0 0 307 45" version="1.1" xmlns="http://www.w3.org/2000/svg" xmlns:xlink="http://www.w3.org/1999/xlink" xmlns:sketch="http://www.bohemiancoding.com/sketch/ns">
    <!-- Generator: Sketch 3.3.2 (12043) - http://www.bohemiancoding.com/sketch -->
    <title>small_header_logo</title>
    <desc>Created with Sketch.</desc>
    <defs></defs>
    <g id="Page-1" stroke="none" stroke-width="1" fill="none" fill-rule="evenodd" sketch:type="MSPage">
        <g id="small_header_logo" sketch:type="MSArtboardGroup">
            <g id="Group" sketch:type="MSLayerGroup" transform="translate(15.000000, 10.000000)">
                <g transform="translate(112.000000, 0.000000)" id="Shape" sketch:type="MSShapeGroup">
                    <path d="M19.9997222,13.75 C19.9997222,21.2497778 14.9998611,22.4997222 10.0000278,24.9996667 C5.00016667,22.4997417 0.000333333333,21.2497778 0.000333333333,13.75 L0.000333333333,1.25022222 C0.000333333333,1.25022222 5.00019444,0.000419444444 10.0000278,0.000419444444 C14.9998889,0.000419444444 19.9997222,1.25022222 19.9997222,1.25022222 L19.9997222,13.75 L19.9997222,13.75 Z" fill="#000000"></path>
                    <path d="M18.7497222,13.5936111 C18.7497222,17.915 16.8523583,19.8649722 14.3073889,21.3174167 L11.9205556,1.62747222 C15.5695,1.86190944 18.7497222,2.65633056 18.7497222,2.65633056 L18.7497222,13.5936083 L18.7497222,13.5936111 Z M9.375,23.1311111 L9.375,1.57072222 C9.58304917,1.5660795 9.791375,1.56278594 9.99998056,1.56278594 C10.2085853,1.56278594 10.4169111,1.5660795 10.6249611,1.57072222 L10.6249611,23.1311111 C10.4169119,23.2310683 10.2084667,23.3328511 9.99998056,23.4371722 C9.79153444,23.33285 9.58305,23.2310675 9.375,23.1311111 L9.375,23.1311111 Z M1.25027778,13.5936111 L1.25027778,2.65633333 C1.25027778,2.65633333 4.4305,1.86191389 8.07936111,1.627475 L5.69272778,21.3174194 C3.14764722,19.8649639 1.25028333,17.914975 1.25028333,13.5936139 L1.25027778,13.5936111 Z M10,0.000277777778 C5.00013889,0.000277777778 0.000305555556,1.25011944 0.000305555556,1.25011944 L0.000305555556,13.7498972 C0.000305555556,21.249675 5.00016667,22.4996194 10,24.9995639 C14.9998611,22.4996389 19.9996944,21.249675 19.9996944,13.7498972 L19.9996944,1.25011944 C19.9996944,1.25011944 14.9998333,0.000277777778 10,0.000277777778 L10,0.000277777778 Z" fill="#FFD200"></path>
                </g>
                <path d="M10.9078252,7.65881464 C11.3114189,7.65881464 11.6218757,7.95709592 11.6218757,8.34351902 L11.6218757,9.02880711 C11.6218757,9.41523022 11.3114189,9.71351149 10.9078252,9.71351149 L7.52384676,9.71351149 L7.52384676,17.407534 C7.52384676,17.7799478 7.19817155,18.0776454 6.810405,18.0776454 L5.38230401,18.0776454 C4.99392872,18.0776454 4.66825352,17.7799478 4.66825352,17.407534 L4.66825352,9.71351149 L1.28427509,9.71351149 C0.880681331,9.71351149 0.570833333,9.41523022 0.570833333,9.02880711 L0.570833333,8.34351902 C0.570833333,7.95709592 0.880681331,7.65881464 1.28427509,7.65881464 L10.9078252,7.65881464 L10.9078252,7.65881464 Z" id="Shape" fill="#FFFFFF" sketch:type="MSShapeGroup"></path>
                <path d="M21.4262212,7.65881464 C21.9077335,7.65881464 22.202363,7.95709592 22.3265457,8.34351902 L24.1740677,14.1036749 L26.1762093,8.34351902 C26.3156104,7.95709592 26.6723313,7.65881464 27.075925,7.65881464 L28.737173,7.65881464 C29.0780666,7.65881464 29.3574777,7.94191918 29.233295,8.26938649 L25.8499253,17.3334015 C25.6788697,17.7945408 25.3069304,18.0776454 24.7633267,18.0776454 L23.6615097,18.0776454 C23.117906,18.0776454 22.7301395,17.7945408 22.5749111,17.3334015 L20.7279979,11.7366874 L18.8804759,17.3334015 C18.7252476,17.7945408 18.337481,18.0776454 17.7944861,18.0776454 L16.6926691,18.0776454 C16.1490654,18.0776454 15.7765173,17.7945408 15.6054617,17.3334015 L12.222092,8.26938649 C12.0979093,7.94191918 12.3773204,7.65881464 12.7188228,7.65881464 L14.3800707,7.65881464 C14.7830558,7.65881464 15.1403854,7.95709592 15.2797865,8.34351902 L17.2819281,14.1036749 L19.1294501,8.34351902 C19.2536328,7.95709592 19.5482623,7.65881464 20.0291659,7.65881464 L21.4262212,7.65881464 L21.4262212,7.65881464 Z" id="Shape" fill="#FFFFFF" sketch:type="MSShapeGroup"></path>
                <path d="M30.3046751,8.34351902 C30.3046751,7.95709592 30.6303503,7.65881464 31.0187256,7.65881464 L32.4309994,7.65881464 C32.8339844,7.65881464 33.1602683,7.95709592 33.1602683,8.34351902 L33.1602683,17.392941 C33.1602683,17.7653548 32.8339844,18.0776454 32.4309994,18.0776454 L31.0187256,18.0776454 C30.6303503,18.0776454 30.3046751,17.7799478 30.3046751,17.407534 L30.3046751,8.34351902 L30.3046751,8.34351902 Z" id="Shape" fill="#FFFFFF" sketch:type="MSShapeGroup"></path>
                <path d="M35.8161953,18.0776454 C35.42782,18.0776454 35.1021448,17.7653548 35.1021448,17.392941 L35.1021448,8.34351902 C35.1021448,7.97168893 35.4126015,7.65881464 35.8009768,7.65881464 L38.0356566,7.65881464 C38.4082047,7.65881464 38.8428441,8.00145869 39.0753823,8.34351902 L43.6543148,15.1006698 L43.6543148,8.328926 C43.6543148,7.95709592 43.97999,7.65881464 44.3683653,7.65881464 L45.6716748,7.65881464 C46.0758773,7.65881464 46.3857253,7.95709592 46.3857253,8.34351902 L46.3857253,17.392941 C46.3857253,17.7653548 46.0758773,18.0776454 45.6716748,18.0776454 L43.157584,18.0776454 C42.7539903,18.0776454 42.3035236,17.7653548 42.055767,17.392941 L37.864601,11.1570528 L37.864601,17.392941 C37.864601,17.7653548 37.5389258,18.0776454 37.1505505,18.0776454 L35.8161953,18.0776454 L35.8161953,18.0776454 Z" id="Shape" fill="#FFFFFF" sketch:type="MSShapeGroup"></path>
                <path d="M53.4203097,7.59985885 L55.1119946,7.59985885 C57.2231004,7.59985885 59.4736074,8.68616307 59.4736074,10.7998157 C59.4736074,11.4693433 58.898958,11.6030154 58.6974655,11.6030154 L57.797141,11.6030154 C57.3631103,11.6030154 57.0057807,11.4098038 56.7105424,10.7998157 C56.3696487,10.0999346 55.7791722,9.65397198 54.8484107,9.65397198 L53.4976196,9.65397198 C51.2629398,9.65397198 50.6572448,10.4425786 50.6572448,12.8685219 C50.6572448,15.2950488 51.2629398,16.0830717 53.4976196,16.0830717 L55.0036391,16.0830717 C55.9350093,16.0830717 56.5248771,15.6371091 56.8657708,14.937228 C57.1610091,14.3266562 57.5177299,14.1334446 57.9523694,14.1334446 L58.8526939,14.1334446 C59.0547951,14.1334446 59.6288357,14.2677004 59.6288357,14.937228 C59.6288357,17.0502969 57.3783288,18.1371849 55.267223,18.1371849 L53.4203097,18.1371849 C49.7106561,18.1371849 47.8016516,16.4852553 47.8016516,12.8685219 C47.8016516,9.25178842 49.7106561,7.59985885 53.4203097,7.59985885" id="Shape" fill="#FFFFFF" sketch:type="MSShapeGroup"></path>
                <path d="M63.8333939,9.71351149 L63.8333939,12.2135872 L67.062144,12.2135872 C67.9308141,12.2135872 69.0326312,11.9158897 69.0326312,10.9638412 C69.0326312,10.011209 67.9308141,9.71351149 67.062144,9.71351149 L63.8333939,9.71351149 L63.8333939,9.71351149 Z M63.8333939,14.2677004 L63.8333939,17.392941 C63.8333939,17.7653548 63.5229372,18.0776454 63.1193434,18.0776454 L61.6912425,18.0776454 C61.3034759,18.0776454 60.9778007,17.7653548 60.9778007,17.392941 L60.9778007,8.34351902 C60.9778007,7.95709592 61.2876487,7.65881464 61.676024,7.65881464 L67.9308141,7.65881464 C70.1971483,7.65881464 71.8888332,8.90972809 71.8888332,10.9638412 C71.8888332,12.571408 70.6001333,13.3150682 69.0326312,13.6127657 C69.6693719,13.8363308 70.135057,14.3570096 70.7559704,15.2950488 L72.1371985,17.392941 C72.3855639,17.7799478 72.2765997,18.0776454 71.8730059,18.0776454 L70.0577471,18.0776454 C69.6693719,18.0776454 69.1415954,17.7799478 68.89323,17.392941 L67.6045302,15.4584906 C67.2173724,14.8776885 66.6585502,14.2677004 65.6803072,14.2677004 L63.8333939,14.2677004 L63.8333939,14.2677004 Z" id="Shape" fill="#FFFFFF" sketch:type="MSShapeGroup"></path>
                <path d="M83.5224384,8.34351902 L83.5224384,9.02880711 C83.5224384,9.41523022 83.1967632,9.71351149 82.8083879,9.71351149 L76.2120954,9.71351149 L76.2120954,11.8265804 L81.8928449,11.8265804 C82.2812202,11.8265804 82.6068954,12.138871 82.6068954,12.5112848 L82.6068954,13.1959892 C82.6068954,13.5678193 82.2812202,13.8801098 81.8928449,13.8801098 L76.2120954,13.8801098 L76.2120954,16.0235322 L82.7931695,16.0235322 C83.180936,16.0235322 83.4913928,16.3212298 83.4913928,16.6936436 L83.4913928,17.392941 C83.4913928,17.7653548 83.180936,18.0776454 82.7773423,18.0776454 L74.0705526,18.0776454 C73.6669589,18.0776454 73.3565022,17.7653548 73.3565022,17.378348 L73.3565022,8.328926 C73.3565022,7.95709592 73.6821774,7.65881464 74.0705526,7.65881464 L82.8083879,7.65881464 C83.1967632,7.65881464 83.5224384,7.95709592 83.5224384,8.34351902" id="Shape" fill="#FFFFFF" sketch:type="MSShapeGroup"></path>
                <path d="M89.1130947,7.59985885 L91.0373177,7.59985885 C92.9931951,7.59985885 95.0884737,8.68616307 95.0884737,10.2791368 C95.0884737,10.9486645 94.5144331,11.0829202 94.3123319,11.0829202 L93.4126161,11.0829202 C92.9779767,11.0829202 92.6364742,10.889125 92.3881089,10.3982159 C92.1397435,9.89213002 91.5498757,9.65397198 90.7743426,9.65397198 L88.4915724,9.65397198 C87.560811,9.65397198 87.1572172,9.96626255 87.1572172,10.4869414 C87.1572172,12.2135872 95.3678848,11.2165923 95.3678848,15.1012535 C95.3678848,16.8868551 94.2812862,18.1371849 90.5564141,18.1371849 L88.259643,18.1371849 C86.3037656,18.1371849 84.2078782,17.0502969 84.2078782,15.4584906 C84.2078782,14.7883792 84.7825275,14.6547072 84.9846288,14.6547072 L85.8843446,14.6547072 C86.318984,14.6547072 86.6610952,14.8479187 86.9088518,15.3394116 C87.1572172,15.8454974 87.747085,16.0830717 88.5232269,16.0830717 L91.1773276,16.0830717 C92.1086978,16.0830717 92.5122916,15.7707812 92.5122916,15.2495186 C92.5122916,13.5234565 84.301624,14.4912654 84.301624,10.6357902 C84.301624,8.85018858 85.3882226,7.59985885 89.1130947,7.59985885" id="Shape" fill="#FFFFFF" sketch:type="MSShapeGroup"></path>
                <path d="M106.18091,7.65881464 C106.584504,7.65881464 106.894961,7.95709592 106.894961,8.34351902 L106.894961,9.02880711 C106.894961,9.41523022 106.584504,9.71351149 106.18091,9.71351149 L102.796932,9.71351149 L102.796932,17.407534 C102.796932,17.7799478 102.471257,18.0776454 102.08349,18.0776454 L100.655389,18.0776454 C100.267014,18.0776454 99.9413386,17.7799478 99.9413386,17.407534 L99.9413386,9.71351149 L96.5573602,9.71351149 C96.1537665,9.71351149 95.8439185,9.41523022 95.8439185,9.02880711 L95.8439185,8.34351902 C95.8439185,7.95709592 96.1537665,7.65881464 96.5573602,7.65881464 L106.18091,7.65881464 L106.18091,7.65881464 Z" id="Shape" fill="#FFFFFF" sketch:type="MSShapeGroup"></path>
                <path d="M147.97662,7.65881464 C148.380214,7.65881464 148.69067,7.95709592 148.69067,8.34351902 L148.69067,9.02880711 C148.69067,9.41523022 148.380214,9.71351149 147.97662,9.71351149 L144.592641,9.71351149 L144.592641,17.407534 C144.592641,17.7799478 144.266966,18.0776454 143.8792,18.0776454 L142.451099,18.0776454 C142.062723,18.0776454 141.737048,17.7799478 141.737048,17.407534 L141.737048,9.71351149 L138.35307,9.71351149 C137.949476,9.71351149 137.639628,9.41523022 137.639628,9.02880711 L137.639628,8.34351902 C137.639628,7.95709592 137.949476,7.65881464 138.35307,7.65881464 L147.97662,7.65881464 L147.97662,7.65881464 Z" id="Shape" fill="#FFFFFF" sketch:type="MSShapeGroup"></path>
                <path d="M159.881114,8.34351902 L159.881114,9.02880711 C159.881114,9.41523022 159.555439,9.71351149 159.167063,9.71351149 L152.570771,9.71351149 L152.570771,11.8265804 L158.25152,11.8265804 C158.639896,11.8265804 158.965571,12.138871 158.965571,12.5112848 L158.965571,13.1959892 C158.965571,13.5678193 158.639896,13.8801098 158.25152,13.8801098 L152.570771,13.8801098 L152.570771,16.0235322 L159.151845,16.0235322 C159.539611,16.0235322 159.850068,16.3212298 159.850068,16.6936436 L159.850068,17.392941 C159.850068,17.7653548 159.539611,18.0776454 159.136018,18.0776454 L150.429228,18.0776454 C150.025634,18.0776454 149.715177,17.7653548 149.715177,17.378348 L149.715177,8.328926 C149.715177,7.95709592 150.040853,7.65881464 150.429228,7.65881464 L159.167063,7.65881464 C159.555439,7.65881464 159.881114,7.95709592 159.881114,8.34351902" id="Shape" fill="#FFFFFF" sketch:type="MSShapeGroup"></path>
                <path d="M166.078074,7.59985885 L167.769759,7.59985885 C169.880864,7.59985885 172.131371,8.68616307 172.131371,10.7998157 C172.131371,11.4693433 171.556722,11.6030154 171.35523,11.6030154 L170.454905,11.6030154 C170.020874,11.6030154 169.663545,11.4098038 169.368306,10.7998157 C169.027413,10.0999346 168.437545,9.65397198 167.506175,9.65397198 L166.155384,9.65397198 C163.920704,9.65397198 163.315009,10.4425786 163.315009,12.8685219 C163.315009,15.2950488 163.920704,16.0830717 166.155384,16.0830717 L167.661403,16.0830717 C168.592773,16.0830717 169.182641,15.6371091 169.523535,14.937228 C169.818773,14.3266562 170.175494,14.1334446 170.610133,14.1334446 L171.510458,14.1334446 C171.712559,14.1334446 172.2866,14.2677004 172.2866,14.937228 C172.2866,17.0502969 170.036093,18.1371849 167.924987,18.1371849 L166.078074,18.1371849 C162.36842,18.1371849 160.459416,16.4852553 160.459416,12.8685219 C160.459416,9.25178842 162.36842,7.59985885 166.078074,7.59985885" id="Shape" fill="#FFFFFF" sketch:type="MSShapeGroup"></path>
                <path d="M181.706222,13.6723053 L176.491158,13.6723053 L176.491158,17.407534 C176.491158,17.7799478 176.164265,18.0776454 175.777107,18.0776454 L174.364225,18.0776454 C173.960631,18.0776454 173.634956,17.7653548 173.634956,17.392941 L173.634956,8.34351902 C173.634956,7.95709592 173.960631,7.65881464 174.364225,7.65881464 L175.777107,7.65881464 C176.164265,7.65881464 176.491158,7.95709592 176.491158,8.34351902 L176.491158,11.6181921 L181.706222,11.6181921 L181.706222,8.34351902 C181.706222,7.95709592 182.031898,7.65881464 182.420273,7.65881464 L183.832547,7.65881464 C184.235532,7.65881464 184.561816,7.95709592 184.561816,8.34351902 L184.561816,17.392941 C184.561816,17.7653548 184.235532,18.0776454 183.832547,18.0776454 L182.420273,18.0776454 C182.031898,18.0776454 181.706222,17.7799478 181.706222,17.407534 L181.706222,13.6723053 L181.706222,13.6723053 Z" id="Shape" fill="#FFFFFF" sketch:type="MSShapeGroup"></path>
                <path d="M187.250614,18.0776454 C186.862239,18.0776454 186.536564,17.7653548 186.536564,17.392941 L186.536564,8.34351902 C186.536564,7.97168893 186.847021,7.65881464 187.235396,7.65881464 L189.470076,7.65881464 C189.842624,7.65881464 190.277263,8.00145869 190.509801,8.34351902 L195.088734,15.1006698 L195.088734,8.328926 C195.088734,7.95709592 195.414409,7.65881464 195.802784,7.65881464 L197.106094,7.65881464 C197.510296,7.65881464 197.820144,7.95709592 197.820144,8.34351902 L197.820144,17.392941 C197.820144,17.7653548 197.510296,18.0776454 197.106094,18.0776454 L194.592003,18.0776454 C194.188409,18.0776454 193.737943,17.7653548 193.490186,17.392941 L189.29902,11.1570528 L189.29902,17.392941 C189.29902,17.7653548 188.973345,18.0776454 188.58497,18.0776454 L187.250614,18.0776454 L187.250614,18.0776454 Z" id="Shape" fill="#FFFFFF" sketch:type="MSShapeGroup"></path>
                <path d="M202.091664,12.8685219 C202.091664,15.1006698 203.007816,16.3358228 205.335632,16.3358228 C207.664058,16.3358228 208.579601,15.1006698 208.579601,12.8685219 C208.579601,10.6357902 207.664058,9.4006372 205.335632,9.4006372 C203.007816,9.4006372 202.091664,10.6357902 202.091664,12.8685219 M205.335632,7.43583333 C209.216342,7.43583333 211.435803,8.99845364 211.435803,12.8685219 C211.435803,16.7380064 209.216342,18.3012104 205.335632,18.3012104 C201.455532,18.3012104 199.236071,16.7380064 199.236071,12.8685219 C199.236071,8.99845364 201.455532,7.43583333 205.335632,7.43583333" id="Shape" fill="#FFFFFF" sketch:type="MSShapeGroup"></path>
                <path d="M214.993881,7.65881464 C215.397474,7.65881464 215.707931,7.97168893 215.707931,8.35869575 L215.707931,16.0235322 L222.304224,16.0235322 C222.69199,16.0235322 223.018274,16.3212298 223.018274,16.7082366 L223.018274,17.392941 C223.018274,17.7799478 222.69199,18.0776454 222.304224,18.0776454 L213.56578,18.0776454 C213.178013,18.0776454 212.851729,17.7799478 212.851729,17.407534 L212.851729,8.35869575 C212.851729,7.97168893 213.162186,7.65881464 213.56578,7.65881464 L214.993881,7.65881464 L214.993881,7.65881464 Z" id="Shape" fill="#FFFFFF" sketch:type="MSShapeGroup"></path>
                <path d="M226.150844,12.8685219 C226.150844,15.1006698 227.066995,16.3358228 229.394812,16.3358228 C231.723238,16.3358228 232.638781,15.1006698 232.638781,12.8685219 C232.638781,10.6357902 231.723238,9.4006372 229.394812,9.4006372 C227.066995,9.4006372 226.150844,10.6357902 226.150844,12.8685219 M229.394812,7.43583333 C233.275521,7.43583333 235.494983,8.99845364 235.494983,12.8685219 C235.494983,16.7380064 233.275521,18.3012104 229.394812,18.3012104 C225.514712,18.3012104 223.29525,16.7380064 223.29525,12.8685219 C223.29525,8.99845364 225.514712,7.43583333 229.394812,7.43583333" id="Shape" fill="#FFFFFF" sketch:type="MSShapeGroup"></path>
                <path d="M243.772003,14.3570096 C243.384236,14.3570096 243.057952,14.0441353 243.057952,13.6723053 L243.057952,13.1060962 C243.057952,12.7348498 243.384236,12.4219755 243.772003,12.4219755 L247.574793,12.4219755 C247.963169,12.4219755 248.288844,12.7348498 248.288844,13.1060962 L248.288844,13.9098796 C248.288844,16.5891576 246.612377,18.1371849 243.275881,18.1371849 L241.568369,18.1371849 C238.278136,18.1371849 236.368523,16.4852553 236.368523,12.8685219 C236.368523,9.25178842 238.278136,7.59985885 241.987181,7.59985885 L243.679474,7.59985885 C245.789971,7.59985885 248.041087,8.68616307 248.041087,10.2791368 C248.041087,10.9486645 247.465829,11.0829202 247.264337,11.0829202 L246.364621,11.0829202 C245.929981,11.0829202 245.603697,10.8739482 245.339505,10.3982159 C245.060703,9.89213002 244.346652,9.65338826 243.415282,9.65338826 L242.064491,9.65338826 C239.829811,9.65338826 239.224116,10.4425786 239.224116,12.8685219 C239.224116,15.2944651 239.829811,16.0830717 241.645678,16.0830717 L243.197962,16.0830717 C244.904865,16.0830717 245.463688,15.3983674 245.479515,14.3570096 L243.772003,14.3570096 L243.772003,14.3570096 Z" id="Shape" fill="#FFFFFF" sketch:type="MSShapeGroup"></path>
                <path d="M249.731555,8.34351902 C249.731555,7.95709592 250.05723,7.65881464 250.445605,7.65881464 L251.857879,7.65881464 C252.260864,7.65881464 252.587148,7.95709592 252.587148,8.34351902 L252.587148,17.392941 C252.587148,17.7653548 252.260864,18.0776454 251.857879,18.0776454 L250.445605,18.0776454 C250.05723,18.0776454 249.731555,17.7799478 249.731555,17.407534 L249.731555,8.34351902 L249.731555,8.34351902 Z" id="Shape" fill="#FFFFFF" sketch:type="MSShapeGroup"></path>
                <path d="M264.695569,8.34351902 L264.695569,9.02880711 C264.695569,9.41523022 264.369894,9.71351149 263.981519,9.71351149 L257.385226,9.71351149 L257.385226,11.8265804 L263.065976,11.8265804 C263.454351,11.8265804 263.780026,12.138871 263.780026,12.5112848 L263.780026,13.1959892 C263.780026,13.5678193 263.454351,13.8801098 263.065976,13.8801098 L257.385226,13.8801098 L257.385226,16.0235322 L263.9663,16.0235322 C264.354067,16.0235322 264.664524,16.3212298 264.664524,16.6936436 L264.664524,17.392941 C264.664524,17.7653548 264.354067,18.0776454 263.950473,18.0776454 L255.243683,18.0776454 C254.84009,18.0776454 254.529633,17.7653548 254.529633,17.378348 L254.529633,8.328926 C254.529633,7.95709592 254.855308,7.65881464 255.243683,7.65881464 L263.981519,7.65881464 C264.369894,7.65881464 264.695569,7.95709592 264.695569,8.34351902" id="Shape" fill="#FFFFFF" sketch:type="MSShapeGroup"></path>
                <path d="M270.286225,7.59985885 L272.210449,7.59985885 C274.166326,7.59985885 276.261605,8.68616307 276.261605,10.2791368 C276.261605,10.9486645 275.687564,11.0829202 275.485463,11.0829202 L274.585747,11.0829202 C274.151107,11.0829202 273.809605,10.889125 273.56124,10.3982159 C273.312874,9.89213002 272.723007,9.65397198 271.947473,9.65397198 L269.664703,9.65397198 C268.733942,9.65397198 268.330348,9.96626255 268.330348,10.4869414 C268.330348,12.2135872 276.541016,11.2165923 276.541016,15.1012535 C276.541016,16.8868551 275.454417,18.1371849 271.729545,18.1371849 L269.432774,18.1371849 C267.476896,18.1371849 265.381009,17.0502969 265.381009,15.4584906 C265.381009,14.7883792 265.955658,14.6547072 266.15776,14.6547072 L267.057475,14.6547072 C267.492115,14.6547072 267.834226,14.8479187 268.081983,15.3394116 C268.330348,15.8454974 268.920216,16.0830717 269.696358,16.0830717 L272.350458,16.0830717 C273.281829,16.0830717 273.685422,15.7707812 273.685422,15.2495186 C273.685422,13.5234565 265.474755,14.4912654 265.474755,10.6357902 C265.474755,8.85018858 266.561353,7.59985885 270.286225,7.59985885" id="Shape" fill="#FFFFFF" sketch:type="MSShapeGroup"></path>
            </g>
        </g>
    </g>
</svg>