<?xml version="1.0" encoding="UTF-8" standalone="no"?>
<svg width="600px" height="150px" viewBox="0 0 600 150" version="1.1" xmlns="http://www.w3.org/2000/svg" xmlns:xlink="http://www.w3.org/1999/xlink" xmlns:sketch="http://www.bohemiancoding.com/sketch/ns">
    <!-- Generator: Sketch 3.3.3 (12072) - http://www.bohemiancoding.com/sketch -->
    <title>logo_CompurterizedTrafficControl</title>
    <desc>Created with Sketch.</desc>
    <defs></defs>
    <g id="Page-1" stroke="none" stroke-width="1" fill="none" fill-rule="evenodd" sketch:type="MSPage">
        <g id="logo_CompurterizedTrafficControl" sketch:type="MSArtboardGroup">
            <g id="Line-+-Line-+-computerized-traffic" sketch:type="MSLayerGroup" transform="translate(86.000000, 25.000000)">
                <path d="M0,35.7798165 L427.540773,35.7798165" id="Line" stroke="#000000" stroke-width="2" stroke-linecap="square" sketch:type="MSShapeGroup"></path>
                <path d="M397.690987,0.458715596 L397.690987,100" id="Line" stroke="#000000" stroke-width="2" stroke-linecap="square" sketch:type="MSShapeGroup"></path>
                <path d="M19.4216445,23.0630017 L16.0675798,23.6677537 C15.9545662,22.9984915 15.6982714,22.4945365 15.2986877,22.1558737 C14.899104,21.8172109 14.3804602,21.647882 13.7427407,21.647882 C12.8951389,21.647882 12.2190857,21.9401759 11.7145608,22.5247724 C11.210036,23.109369 10.9577773,24.0870416 10.9577773,25.4578197 C10.9577773,26.9818023 11.2140721,28.0582502 11.7266694,28.6871954 C12.2392667,29.3161406 12.9274283,29.6306085 13.7911749,29.6306085 C14.4369667,29.6306085 14.9657009,29.4471689 15.3773932,29.0802842 C15.7890855,28.7133995 16.0796875,28.0824479 16.2492079,27.1874104 L19.591164,27.7558773 C19.2440509,29.2879234 18.578088,30.445004 17.5932554,31.2271538 C16.6084229,32.0093037 15.2886055,32.4003727 13.6337639,32.4003727 C11.7528951,32.4003727 10.2534697,31.8077217 9.13544251,30.6224018 C8.01741536,29.4370819 7.45841017,27.7962046 7.45841017,25.6997205 C7.45841017,23.5790462 8.01943343,21.9280897 9.14149678,20.7468015 C10.2635601,19.5655134 11.7811482,18.9748782 13.6943066,18.9748782 C15.2603518,18.9748782 16.5055006,19.3115201 17.4297902,19.984814 C18.3540798,20.6581079 19.0180246,21.6841603 19.4216445,23.0630017 L19.4216445,23.0630017 Z M21.2137079,25.5061998 C21.2137079,24.3773238 21.4922015,23.2847494 22.049197,22.228444 C22.6061924,21.1721385 23.3952575,20.3658106 24.4164159,19.8094359 C25.4375743,19.2530613 26.5777834,18.9748782 27.8370775,18.9748782 C29.7825255,18.9748782 31.3768002,19.6058298 32.6199495,20.8677519 C33.8630989,22.1296741 34.4846642,23.7241876 34.4846642,25.6513403 C34.4846642,27.5946198 33.8570447,29.2052599 32.6017867,30.4833088 C31.3465288,31.7613578 29.7663806,32.4003727 27.8612946,32.4003727 C26.6827245,32.4003727 25.5586599,32.1342845 24.4890671,31.6021001 C23.4194743,31.0699156 22.6061924,30.2897933 22.049197,29.2617098 C21.4922015,28.2336262 21.2137079,26.9818021 21.2137079,25.5061998 L21.2137079,25.5061998 Z M24.7009665,25.6876254 C24.7009665,26.9616427 25.0036769,27.9372995 25.6091068,28.6146251 C26.2145366,29.2919508 26.9612223,29.6306085 27.8491861,29.6306085 C28.7371499,29.6306085 29.4818174,29.2919508 30.0832111,28.6146251 C30.6846048,27.9372995 30.9852971,26.9535794 30.9852971,25.6634353 C30.9852971,24.4055449 30.6846048,23.4379514 30.0832111,22.7606257 C29.4818174,22.0833001 28.7371499,21.7446423 27.8491861,21.7446423 C26.9612223,21.7446423 26.2145366,22.0833001 25.6091068,22.7606257 C25.0036769,23.4379514 24.7009665,24.4136082 24.7009665,25.6876254 L24.7009665,25.6876254 Z M36.894263,19.2651591 L40.030374,19.2651591 L40.030374,21.0189399 C41.1524374,19.6562253 42.4883992,18.9748782 44.0382997,18.9748782 C44.8616843,18.9748782 45.5760808,19.144207 46.1815107,19.4828698 C46.7869406,19.8215327 47.2833856,20.3335509 47.6708607,21.0189399 C48.2359286,20.3335509 48.8453855,19.8215327 49.4992498,19.4828698 C50.153114,19.144207 50.851366,18.9748782 51.5940266,18.9748782 C52.5384972,18.9748782 53.3376526,19.166381 53.9915169,19.5493926 C54.6453812,19.9324041 55.1337539,20.4948178 55.4566498,21.2366507 C55.6907494,21.7849619 55.8077974,22.6719226 55.8077974,23.8975595 L55.8077974,32.1100917 L52.4052986,32.1100917 L52.4052986,24.7684024 C52.4052986,23.4943851 52.2882506,22.6719306 52.054151,22.3010142 C51.7393275,21.8172102 51.2549909,21.5753118 50.6011266,21.5753118 C50.1248551,21.5753118 49.6768437,21.7204508 49.257079,22.0107332 C48.8373143,22.3010156 48.5346039,22.7263536 48.3489388,23.28676 C48.1632736,23.8471663 48.0704424,24.7321112 48.0704424,25.9416213 L48.0704424,32.1100917 L44.6679436,32.1100917 L44.6679436,25.0707784 C44.6679436,23.8209513 44.6074015,23.0146234 44.4863156,22.6517704 C44.3652296,22.2889173 44.1775491,22.0187975 43.9232686,21.8414027 C43.668988,21.6640079 43.3238982,21.5753118 42.8879887,21.5753118 C42.3632828,21.5753118 41.8910546,21.7164192 41.4712899,21.9986382 C41.0515252,22.2808572 40.7508329,22.6880528 40.5692039,23.2202372 C40.387575,23.7524217 40.2967618,24.6353508 40.2967618,25.869051 L40.2967618,32.1100917 L36.894263,32.1100917 L36.894263,19.2651591 Z M59.1013194,19.2651591 L62.273756,19.2651591 L62.273756,21.1519854 C62.6854483,20.5069133 63.2424355,19.9828002 63.9447341,19.5796302 C64.6470327,19.1764601 65.4260075,18.9748782 66.2816817,18.9748782 C67.7750754,18.9748782 69.0424229,19.5594659 70.0837622,20.728659 C71.1251016,21.897852 71.6457635,23.5266345 71.6457635,25.6150552 C71.6457635,27.7599197 71.1210655,29.4270027 70.0716537,30.6163543 C69.0222419,31.8057058 67.7508583,32.4003727 66.2574646,32.4003727 C65.5470936,32.4003727 64.9033295,32.2592653 64.326153,31.9770463 C63.7489765,31.6948273 63.1415377,31.2110305 62.5038182,30.5256415 L62.5038182,36.996488 L59.1013194,36.996488 L59.1013194,19.2651591 Z M62.4674926,25.4699147 C62.4674926,26.9132634 62.7540585,27.9796321 63.3271987,28.6690528 C63.900339,29.3584736 64.598591,29.7031788 65.4219756,29.7031788 C66.2130706,29.7031788 66.8709612,29.386695 67.3956671,28.7537181 C67.920373,28.1207412 68.182722,27.0825939 68.182722,25.6392453 C68.182722,24.2926574 67.9123007,23.2928107 67.37145,22.6396753 C66.8305993,21.9865399 66.1606003,21.6599771 65.3614329,21.6599771 C64.5299759,21.6599771 63.8397962,21.9804924 63.2908731,22.6215328 C62.74195,23.2625731 62.4674926,24.2120242 62.4674926,25.4699147 L62.4674926,25.4699147 Z M82.8098344,32.1100917 L82.8098344,30.1869804 C82.3416353,30.8723694 81.7261241,31.4126091 80.9632825,31.8077157 C80.2004409,32.2028224 79.3952312,32.4003727 78.5476294,32.4003727 C77.6838828,32.4003727 76.9089442,32.2108856 76.2227904,31.8319058 C75.5366365,31.452926 75.0401915,30.9207496 74.7334404,30.2353605 C74.4266892,29.5499715 74.273316,28.6025362 74.273316,27.3930261 L74.273316,19.2651591 L77.6758148,19.2651591 L77.6758148,25.1675387 C77.6758148,26.9737404 77.7383749,28.0804255 77.8634971,28.4876272 C77.9886193,28.8948289 78.2166611,29.2173601 78.5476294,29.4552304 C78.8785978,29.6931007 79.2983562,29.8120341 79.8069172,29.8120341 C80.3881299,29.8120341 80.9087918,29.6527843 81.3689185,29.33428 C81.8290452,29.0157757 82.143864,28.620675 82.3133844,28.1489661 C82.4829047,27.6772572 82.5676636,26.5221924 82.5676636,24.6837371 L82.5676636,19.2651591 L85.9701625,19.2651591 L85.9701625,32.1100917 L82.8098344,32.1100917 Z M95.390604,19.2651591 L95.390604,21.9744481 L93.065765,21.9744481 L93.065765,27.1511253 C93.065765,28.1993673 93.0879637,28.8101608 93.1323619,28.9835239 C93.1767601,29.156887 93.2776636,29.3000102 93.4350754,29.4128978 C93.5924871,29.5257854 93.7842037,29.5822284 94.0102309,29.5822284 C94.3250544,29.5822284 94.781138,29.4733741 95.3784955,29.2556623 L95.6691004,31.892381 C94.8780054,32.2310438 93.9819826,32.4003727 92.9810052,32.4003727 C92.367503,32.4003727 91.814552,32.2975659 91.3221357,32.0919492 C90.8297194,31.8863325 90.468485,31.6202443 90.2384217,31.2936765 C90.0083583,30.9671088 89.8489308,30.5256443 89.7601345,29.9692696 C89.6874829,29.574163 89.6511576,28.7758984 89.6511576,27.5744517 L89.6511576,21.9744481 L88.0891564,21.9744481 L88.0891564,19.2651591 L89.6511576,19.2651591 L89.6511576,16.7131056 L93.065765,14.7295191 L93.065765,19.2651591 L95.390604,19.2651591 Z M105.198519,28.0219682 L108.588909,28.5904351 C108.153,29.8321987 107.464838,30.7776182 106.524404,31.426722 C105.583969,32.0758257 104.407435,32.4003727 102.994765,32.4003727 C100.758711,32.4003727 99.103894,31.6706459 98.0302651,30.2111704 C97.1826632,29.0419774 96.7588687,27.5663972 96.7588687,25.7843858 C96.7588687,23.655648 97.3158558,21.988565 98.4298468,20.7830867 C99.5438377,19.5776083 100.95245,18.9748782 102.655726,18.9748782 C104.568884,18.9748782 106.0784,19.6058298 107.184319,20.8677519 C108.290237,22.1296741 108.818972,24.0628453 108.770537,26.6673237 L100.246127,26.6673237 C100.270344,27.6752487 100.544802,28.4594027 101.069508,29.019809 C101.594214,29.5802153 102.248068,29.8604143 103.031091,29.8604143 C103.563869,29.8604143 104.01188,29.7152752 104.375138,29.4249928 C104.738396,29.1347104 105.012854,28.6670402 105.198519,28.0219682 L105.198519,28.0219682 Z M105.392255,24.5869768 C105.368038,23.6032419 105.113761,22.8553728 104.629418,22.3433468 C104.145074,21.8313209 103.555797,21.5753118 102.861571,21.5753118 C102.118911,21.5753118 101.505418,21.8454316 101.021074,22.3856795 C100.53673,22.9259273 100.298598,23.6596857 100.30667,24.5869768 L105.392255,24.5869768 Z M114.800588,32.1100917 L111.39809,32.1100917 L111.39809,19.2651591 L114.558418,19.2651591 L114.558418,21.0915102 C115.099268,20.2287263 115.585623,19.6602651 116.017496,19.3861095 C116.44937,19.1119539 116.939761,18.9748782 117.488684,18.9748782 C118.263634,18.9748782 119.010319,19.1885551 119.728763,19.6159153 L118.67532,22.5792001 C118.10218,22.2082837 117.56941,22.0228283 117.076993,22.0228283 C116.600722,22.0228283 116.197108,22.1538566 115.86614,22.4159171 C115.535171,22.6779776 115.27484,23.1516953 115.085139,23.8370843 C114.895438,24.5224733 114.800588,25.9577371 114.800588,28.1429186 L114.800588,32.1100917 Z M121.193896,17.5234733 L121.193896,14.3787629 L124.596395,14.3787629 L124.596395,17.5234733 L121.193896,17.5234733 Z M121.193896,32.1100917 L121.193896,19.2651591 L124.596395,19.2651591 L124.596395,32.1100917 L121.193896,32.1100917 Z M126.715389,32.1100917 L126.715389,29.461278 L131.534586,23.9338446 C132.325681,23.0307438 132.910921,22.389713 133.290324,22.0107332 C132.894777,22.0349234 132.374115,22.05105 131.728323,22.0591134 L127.187622,22.0833035 L127.187622,19.2651591 L137.818917,19.2651591 L137.818917,21.6720721 L132.902851,27.3325509 L131.17133,29.2072821 C132.115801,29.1508383 132.701041,29.1226168 132.927068,29.1226168 L138.194281,29.1226168 L138.194281,32.1100917 L126.715389,32.1100917 Z M147.929545,28.0219682 L151.319935,28.5904351 C150.884026,29.8321987 150.195864,30.7776182 149.25543,31.426722 C148.314995,32.0758257 147.138461,32.4003727 145.725791,32.4003727 C143.489737,32.4003727 141.83492,31.6706459 140.761291,30.2111704 C139.913689,29.0419774 139.489895,27.5663972 139.489895,25.7843858 C139.489895,23.655648 140.046882,21.988565 141.160873,20.7830867 C142.274864,19.5776083 143.683476,18.9748782 145.386752,18.9748782 C147.299911,18.9748782 148.809426,19.6058298 149.915345,20.8677519 C151.021264,22.1296741 151.549998,24.0628453 151.501563,26.6673237 L142.977153,26.6673237 C143.001371,27.6752487 143.275828,28.4594027 143.800534,29.019809 C144.32524,29.5802153 144.979094,29.8604143 145.762117,29.8604143 C146.294895,29.8604143 146.742907,29.7152752 147.106164,29.4249928 C147.469422,29.1347104 147.74388,28.6670402 147.929545,28.0219682 L147.929545,28.0219682 Z M148.123282,24.5869768 C148.099064,23.6032419 147.844788,22.8553728 147.360444,22.3433468 C146.8761,21.8313209 146.286824,21.5753118 145.592597,21.5753118 C144.849937,21.5753118 144.236444,21.8454316 143.7521,22.3856795 C143.267756,22.9259273 143.029624,23.6596857 143.037696,24.5869768 L148.123282,24.5869768 Z M166.068133,32.1100917 L162.907805,32.1100917 L162.907805,30.2232655 C162.383099,30.9570349 161.763552,31.5033221 161.049145,31.8621434 C160.334737,32.2209647 159.614287,32.4003727 158.887771,32.4003727 C157.410522,32.4003727 156.145192,31.8057058 155.091744,30.6163543 C154.038297,29.4270027 153.51158,27.767983 153.51158,25.6392453 C153.51158,23.4621272 154.02417,21.8071391 155.049365,20.6742313 C156.074559,19.5413235 157.37016,18.9748782 158.936205,18.9748782 C160.373092,18.9748782 161.616222,19.5715608 162.665634,20.7649441 L162.665634,14.3787629 L166.068133,14.3787629 L166.068133,32.1100917 Z M156.98673,25.4094395 C156.98673,26.7802176 157.176429,27.7720009 157.555832,28.3848194 C158.104755,29.2717934 158.871621,29.7152738 159.856454,29.7152738 C160.639476,29.7152738 161.305439,29.3826635 161.854362,28.717433 C162.403285,28.0522025 162.677743,27.0584033 162.677743,25.7360056 C162.677743,24.2604033 162.411358,23.1980662 161.878579,22.5489625 C161.345801,21.8998588 160.663694,21.5753118 159.832237,21.5753118 C159.024997,21.5753118 158.348944,21.8958271 157.804057,22.5368675 C157.25917,23.1779078 156.98673,24.1354222 156.98673,25.4094395 L156.98673,25.4094395 Z M182.208813,19.2651591 L182.208813,21.9744481 L179.883973,21.9744481 L179.883973,27.1511253 C179.883973,28.1993673 179.906172,28.8101608 179.95057,28.9835239 C179.994969,29.156887 180.095872,29.3000102 180.253284,29.4128978 C180.410696,29.5257854 180.602412,29.5822284 180.828439,29.5822284 C181.143263,29.5822284 181.599347,29.4733741 182.196704,29.2556623 L182.487309,31.892381 C181.696214,32.2310438 180.800191,32.4003727 179.799214,32.4003727 C179.185711,32.4003727 178.63276,32.2975659 178.140344,32.0919492 C177.647928,31.8863325 177.286693,31.6202443 177.05663,31.2936765 C176.826567,30.9671088 176.667139,30.5256443 176.578343,29.9692696 C176.505691,29.574163 176.469366,28.7758984 176.469366,27.5744517 L176.469366,21.9744481 L174.907365,21.9744481 L174.907365,19.2651591 L176.469366,19.2651591 L176.469366,16.7131056 L179.883973,14.7295191 L179.883973,19.2651591 L182.208813,19.2651591 Z M187.827174,32.1100917 L184.424675,32.1100917 L184.424675,19.2651591 L187.585003,19.2651591 L187.585003,21.0915102 C188.125854,20.2287263 188.612208,19.6602651 189.044082,19.3861095 C189.475955,19.1119539 189.966346,18.9748782 190.515269,18.9748782 C191.290219,18.9748782 192.036905,19.1885551 192.755348,19.6159153 L191.701905,22.5792001 C191.128765,22.2082837 190.595995,22.0228283 190.103578,22.0228283 C189.627307,22.0228283 189.223693,22.1538566 188.892725,22.4159171 C188.561756,22.6779776 188.301426,23.1516953 188.111724,23.8370843 C187.922023,24.5224733 187.827174,25.9577371 187.827174,28.1429186 L187.827174,32.1100917 Z M196.763274,23.1839521 L193.675597,22.6275803 C194.02271,21.3858166 194.620058,20.4666028 195.46766,19.8699111 C196.315262,19.2732195 197.574537,18.9748782 199.245524,18.9748782 C200.763135,18.9748782 201.893253,19.1542861 202.635914,19.5131074 C203.378575,19.8719288 203.901255,20.327504 204.20397,20.879847 C204.506684,21.4321899 204.65804,22.4461473 204.65804,23.9217496 L204.621714,27.8889227 C204.621714,29.0177988 204.676202,29.8503324 204.785179,30.3865485 C204.894157,30.9227647 205.097982,31.4972733 205.39666,32.1100917 L202.030487,32.1100917 C201.941691,31.8843165 201.832715,31.5496904 201.703557,31.1062034 C201.64705,30.9046184 201.606689,30.7715743 201.582471,30.7070671 C201.001259,31.2715051 200.379693,31.6948273 199.717757,31.9770463 C199.05582,32.2592653 198.349496,32.4003727 197.598763,32.4003727 C196.274889,32.4003727 195.231548,32.0415568 194.468706,31.3239141 C193.705864,30.6062715 193.324449,29.6991526 193.324449,28.6025301 C193.324449,27.8768241 193.498003,27.2297459 193.845116,26.6612762 C194.192229,26.0928064 194.678584,25.6573893 195.304195,25.3550118 C195.929806,25.0526343 196.831883,24.7885619 198.010453,24.5627867 C199.600715,24.2644409 200.702581,23.9862577 201.316084,23.7282289 L201.316084,23.3895678 C201.316084,22.7364324 201.154638,22.270778 200.831742,21.9925907 C200.508846,21.7144034 199.899389,21.5753118 199.003353,21.5753118 C198.397923,21.5753118 197.925695,21.6942452 197.586654,21.9321155 C197.247613,22.1699858 196.973156,22.5872605 196.763274,23.1839521 L196.763274,23.1839521 Z M201.316084,25.9416213 C200.880174,26.0867625 200.189994,26.260123 199.245524,26.461708 C198.301053,26.663293 197.683524,26.8608434 197.392918,27.054365 C196.948936,27.3688376 196.726948,27.7679699 196.726948,28.2517739 C196.726948,28.7275146 196.904538,29.1387418 197.259724,29.485468 C197.614909,29.8321943 198.066957,30.0055548 198.61588,30.0055548 C199.229382,30.0055548 199.814622,29.8039728 200.371618,29.4008028 C200.78331,29.0943935 201.053731,28.719451 201.18289,28.275964 C201.271686,27.9856816 201.316084,27.433347 201.316084,26.6189435 L201.316084,25.9416213 Z M206.522754,19.2651591 L208.411686,19.2651591 L208.411686,18.2975559 C208.411686,17.2170603 208.526716,16.4107323 208.756779,15.8785479 C208.986843,15.3463635 209.410637,14.9129622 210.028176,14.5783311 C210.645714,14.2436999 211.426707,14.0763869 212.371178,14.0763869 C213.339865,14.0763869 214.288358,14.2215259 215.216684,14.5118083 L214.756559,16.8824362 C214.215709,16.7534218 213.695047,16.6889156 213.194558,16.6889156 C212.702142,16.6889156 212.34898,16.8038173 212.135061,17.0336242 C211.921143,17.2634311 211.814185,17.7048957 211.814185,18.3580311 L211.814185,19.2651591 L214.356978,19.2651591 L214.356978,21.938163 L211.814185,21.938163 L211.814185,32.1100917 L208.411686,32.1100917 L208.411686,21.938163 L206.522754,21.938163 L206.522754,19.2651591 Z M214.780776,19.2651591 L216.669708,19.2651591 L216.669708,18.2975559 C216.669708,17.2170603 216.784738,16.4107323 217.014801,15.8785479 C217.244865,15.3463635 217.668659,14.9129622 218.286198,14.5783311 C218.903736,14.2436999 219.684729,14.0763869 220.6292,14.0763869 C221.597887,14.0763869 222.54638,14.2215259 223.474706,14.5118083 L223.014581,16.8824362 C222.473731,16.7534218 221.953069,16.6889156 221.45258,16.6889156 C220.960164,16.6889156 220.607002,16.8038173 220.393083,17.0336242 C220.179165,17.2634311 220.072207,17.7048957 220.072207,18.3580311 L220.072207,19.2651591 L222.615,19.2651591 L222.615,21.938163 L220.072207,21.938163 L220.072207,32.1100917 L216.669708,32.1100917 L216.669708,21.938163 L214.780776,21.938163 L214.780776,19.2651591 Z M224.528148,17.5234733 L224.528148,14.3787629 L227.930647,14.3787629 L227.930647,17.5234733 L224.528148,17.5234733 Z M224.528148,32.1100917 L224.528148,19.2651591 L227.930647,19.2651591 L227.930647,32.1100917 L224.528148,32.1100917 Z M242.630411,23.0630017 L239.276346,23.6677537 C239.163333,22.9984915 238.907038,22.4945365 238.507454,22.1558737 C238.10787,21.8172109 237.589227,21.647882 236.951507,21.647882 C236.103905,21.647882 235.427852,21.9401759 234.923327,22.5247724 C234.418802,23.109369 234.166544,24.0870416 234.166544,25.4578197 C234.166544,26.9818023 234.422839,28.0582502 234.935436,28.6871954 C235.448033,29.3161406 236.136195,29.6306085 236.999941,29.6306085 C237.645733,29.6306085 238.174467,29.4471689 238.58616,29.0802842 C238.997852,28.7133995 239.288454,28.0824479 239.457974,27.1874104 L242.79993,27.7558773 C242.452817,29.2879234 241.786854,30.445004 240.802022,31.2271538 C239.817189,32.0093037 238.497372,32.4003727 236.84253,32.4003727 C234.961662,32.4003727 233.462236,31.8077217 232.344209,30.6224018 C231.226182,29.4370819 230.667177,27.7962046 230.667177,25.6997205 C230.667177,23.5790462 231.2282,21.9280897 232.350263,20.7468015 C233.472327,19.5655134 234.989915,18.9748782 236.903073,18.9748782 C238.469118,18.9748782 239.714267,19.3115201 240.638557,19.984814 C241.562846,20.6581079 242.226791,21.6841603 242.630411,23.0630017 L242.630411,23.0630017 Z M263.311792,23.0630017 L259.957727,23.6677537 C259.844713,22.9984915 259.588419,22.4945365 259.188835,22.1558737 C258.789251,21.8172109 258.270607,21.647882 257.632888,21.647882 C256.785286,21.647882 256.109233,21.9401759 255.604708,22.5247724 C255.100183,23.109369 254.847924,24.0870416 254.847924,25.4578197 C254.847924,26.9818023 255.104219,28.0582502 255.616817,28.6871954 C256.129414,29.3161406 256.817575,29.6306085 257.681322,29.6306085 C258.327114,29.6306085 258.855848,29.4471689 259.26754,29.0802842 C259.679233,28.7133995 259.969835,28.0824479 260.139355,27.1874104 L263.481311,27.7558773 C263.134198,29.2879234 262.468235,30.445004 261.483403,31.2271538 C260.49857,32.0093037 259.178753,32.4003727 257.523911,32.4003727 C255.643042,32.4003727 254.143617,31.8077217 253.02559,30.6224018 C251.907563,29.4370819 251.348557,27.7962046 251.348557,25.6997205 C251.348557,23.5790462 251.909581,21.9280897 253.031644,20.7468015 C254.153707,19.5655134 255.671295,18.9748782 257.584454,18.9748782 C259.150499,18.9748782 260.395648,19.3115201 261.319937,19.984814 C262.244227,20.6581079 262.908172,21.6841603 263.311792,23.0630017 L263.311792,23.0630017 Z M265.103855,25.5061998 C265.103855,24.3773238 265.382349,23.2847494 265.939344,22.228444 C266.49634,21.1721385 267.285405,20.3658106 268.306563,19.8094359 C269.327721,19.2530613 270.467931,18.9748782 271.727225,18.9748782 C273.672673,18.9748782 275.266947,19.6058298 276.510097,20.8677519 C277.753246,22.1296741 278.374811,23.7241876 278.374811,25.6513403 C278.374811,27.5946198 277.747192,29.2052599 276.491934,30.4833088 C275.236676,31.7613578 273.656528,32.4003727 271.751442,32.4003727 C270.572872,32.4003727 269.448807,32.1342845 268.379214,31.6021001 C267.309622,31.0699156 266.49634,30.2897933 265.939344,29.2617098 C265.382349,28.2336262 265.103855,26.9818021 265.103855,25.5061998 L265.103855,25.5061998 Z M268.591114,25.6876254 C268.591114,26.9616427 268.893824,27.9372995 269.499254,28.6146251 C270.104684,29.2919508 270.851369,29.6306085 271.739333,29.6306085 C272.627297,29.6306085 273.371965,29.2919508 273.973358,28.6146251 C274.574752,27.9372995 274.875444,26.9535794 274.875444,25.6634353 C274.875444,24.4055449 274.574752,23.4379514 273.973358,22.7606257 C273.371965,22.0833001 272.627297,21.7446423 271.739333,21.7446423 C270.851369,21.7446423 270.104684,22.0833001 269.499254,22.7606257 C268.893824,23.4379514 268.591114,24.4136082 268.591114,25.6876254 L268.591114,25.6876254 Z M292.735536,32.1100917 L289.333037,32.1100917 L289.333037,25.55458 C289.333037,24.1676751 289.260387,23.2706353 289.115083,22.8634336 C288.96978,22.4562318 288.733666,22.1397481 288.406734,21.9139729 C288.079802,21.6881977 287.686278,21.5753118 287.226152,21.5753118 C286.636867,21.5753118 286.108133,21.7365774 285.639933,22.0591134 C285.171734,22.3816494 284.850861,22.8090032 284.677305,23.3411876 C284.503748,23.8733721 284.416971,24.8570922 284.416971,26.2923774 L284.416971,32.1100917 L281.014472,32.1100917 L281.014472,19.2651591 L284.1748,19.2651591 L284.1748,21.1519854 C285.296864,19.7005733 286.709512,18.9748782 288.412788,18.9748782 C289.163521,18.9748782 289.849665,19.1099381 290.47124,19.380062 C291.092814,19.6501859 291.563024,19.9948911 291.881884,20.4141879 C292.200744,20.8334848 292.422731,21.3092182 292.547854,21.8414027 C292.672976,22.3735871 292.735536,23.135567 292.735536,24.1273653 L292.735536,32.1100917 Z M302.083326,19.2651591 L302.083326,21.9744481 L299.758487,21.9744481 L299.758487,27.1511253 C299.758487,28.1993673 299.780686,28.8101608 299.825084,28.9835239 C299.869482,29.156887 299.970386,29.3000102 300.127798,29.4128978 C300.285209,29.5257854 300.476926,29.5822284 300.702953,29.5822284 C301.017777,29.5822284 301.47386,29.4733741 302.071218,29.2556623 L302.361823,31.892381 C301.570728,32.2310438 300.674705,32.4003727 299.673728,32.4003727 C299.060225,32.4003727 298.507274,32.2975659 298.014858,32.0919492 C297.522442,31.8863325 297.161207,31.6202443 296.931144,31.2936765 C296.701081,30.9671088 296.541653,30.5256443 296.452857,29.9692696 C296.380205,29.574163 296.34388,28.7758984 296.34388,27.5744517 L296.34388,21.9744481 L294.781879,21.9744481 L294.781879,19.2651591 L296.34388,19.2651591 L296.34388,16.7131056 L299.758487,14.7295191 L299.758487,19.2651591 L302.083326,19.2651591 Z M307.701687,32.1100917 L304.299189,32.1100917 L304.299189,19.2651591 L307.459517,19.2651591 L307.459517,21.0915102 C308.000367,20.2287263 308.486722,19.6602651 308.918595,19.3861095 C309.350469,19.1119539 309.840859,18.9748782 310.389783,18.9748782 C311.164733,18.9748782 311.911418,19.1885551 312.629862,19.6159153 L311.576419,22.5792001 C311.003279,22.2082837 310.470509,22.0228283 309.978092,22.0228283 C309.501821,22.0228283 309.098207,22.1538566 308.767239,22.4159171 C308.43627,22.6779776 308.175939,23.1516953 307.986238,23.8370843 C307.796537,24.5224733 307.701687,25.9577371 307.701687,28.1429186 L307.701687,32.1100917 Z M313.30794,25.5061998 C313.30794,24.3773238 313.586433,23.2847494 314.143429,22.228444 C314.700424,21.1721385 315.48949,20.3658106 316.510648,19.8094359 C317.531806,19.2530613 318.672015,18.9748782 319.93131,18.9748782 C321.876757,18.9748782 323.471032,19.6058298 324.714182,20.8677519 C325.957331,22.1296741 326.578896,23.7241876 326.578896,25.6513403 C326.578896,27.5946198 325.951277,29.2052599 324.696019,30.4833088 C323.440761,31.7613578 321.860613,32.4003727 319.955527,32.4003727 C318.776956,32.4003727 317.652892,32.1342845 316.583299,31.6021001 C315.513706,31.0699156 314.700424,30.2897933 314.143429,29.2617098 C313.586433,28.2336262 313.30794,26.9818021 313.30794,25.5061998 L313.30794,25.5061998 Z M316.795198,25.6876254 C316.795198,26.9616427 317.097909,27.9372995 317.703339,28.6146251 C318.308769,29.2919508 319.055454,29.6306085 319.943418,29.6306085 C320.831382,29.6306085 321.576049,29.2919508 322.177443,28.6146251 C322.778837,27.9372995 323.079529,26.9535794 323.079529,25.6634353 C323.079529,24.4055449 322.778837,23.4379514 322.177443,22.7606257 C321.576049,22.0833001 320.831382,21.7446423 319.943418,21.7446423 C319.055454,21.7446423 318.308769,22.0833001 317.703339,22.7606257 C317.097909,23.4379514 316.795198,24.4136082 316.795198,25.6876254 L316.795198,25.6876254 Z M329.242774,32.1100917 L329.242774,14.3787629 L332.645273,14.3787629 L332.645273,32.1100917 L329.242774,32.1100917 Z M336.047772,28.7113855 L339.450271,28.7113855 L339.450271,31.1424885 C339.450271,32.1262234 339.365512,32.902314 339.195991,33.4707838 C339.026471,34.0392535 338.705598,34.5492559 338.233363,35.0008063 C337.761128,35.4523568 337.161761,35.8071411 336.435245,36.0651699 L335.769276,34.6621452 C336.455429,34.43637 336.943802,34.1259337 337.234409,33.7308271 C337.525015,33.3357205 337.678388,32.7954808 337.694533,32.1100917 L336.047772,32.1100917 L336.047772,28.7113855 Z M349.912047,17.5234733 L349.912047,14.3787629 L353.314545,14.3787629 L353.314545,17.5234733 L349.912047,17.5234733 Z M349.912047,32.1100917 L349.912047,19.2651591 L353.314545,19.2651591 L353.314545,32.1100917 L349.912047,32.1100917 Z M368.49865,32.1100917 L365.096152,32.1100917 L365.096152,25.55458 C365.096152,24.1676751 365.023501,23.2706353 364.878198,22.8634336 C364.732895,22.4562318 364.496781,22.1397481 364.169849,21.9139729 C363.842916,21.6881977 363.449393,21.5753118 362.989266,21.5753118 C362.399981,21.5753118 361.871247,21.7365774 361.403048,22.0591134 C360.934849,22.3816494 360.613976,22.8090032 360.440419,23.3411876 C360.266863,23.8733721 360.180086,24.8570922 360.180086,26.2923774 L360.180086,32.1100917 L356.777587,32.1100917 L356.777587,19.2651591 L359.937915,19.2651591 L359.937915,21.1519854 C361.059978,19.7005733 362.472627,18.9748782 364.175903,18.9748782 C364.926636,18.9748782 365.612779,19.1099381 366.234354,19.380062 C366.855929,19.6501859 367.326139,19.9948911 367.644999,20.4141879 C367.963858,20.8334848 368.185846,21.3092182 368.310968,21.8414027 C368.43609,22.3735871 368.49865,23.135567 368.49865,24.1273653 L368.49865,32.1100917 Z M383.162088,23.0630017 L379.808024,23.6677537 C379.69501,22.9984915 379.438715,22.4945365 379.039132,22.1558737 C378.639548,21.8172109 378.120904,21.647882 377.483185,21.647882 C376.635583,21.647882 375.95953,21.9401759 375.455005,22.5247724 C374.95048,23.109369 374.698221,24.0870416 374.698221,25.4578197 C374.698221,26.9818023 374.954516,28.0582502 375.467113,28.6871954 C375.979711,29.3161406 376.667872,29.6306085 377.531619,29.6306085 C378.177411,29.6306085 378.706145,29.4471689 379.117837,29.0802842 C379.529529,28.7133995 379.820131,28.0824479 379.989652,27.1874104 L383.331608,27.7558773 C382.984495,29.2879234 382.318532,30.445004 381.333699,31.2271538 C380.348867,32.0093037 379.029049,32.4003727 377.374208,32.4003727 C375.493339,32.4003727 373.993914,31.8077217 372.875886,30.6224018 C371.757859,29.4370819 371.198854,27.7962046 371.198854,25.6997205 C371.198854,23.5790462 371.759877,21.9280897 372.881941,20.7468015 C374.004004,19.5655134 375.521592,18.9748782 377.434751,18.9748782 C379.000796,18.9748782 380.245945,19.3115201 381.170234,19.984814 C382.094524,20.6581079 382.758469,21.6841603 383.162088,23.0630017 L383.162088,23.0630017 Z M385.741207,32.1100917 L385.741207,28.7113855 L389.143706,28.7113855 L389.143706,32.1100917 L385.741207,32.1100917 Z" id="computerized-traffic" fill="#000000" sketch:type="MSShapeGroup"></path>
            </g>
        </g>
    </g>
</svg>