<?xml version="1.0" encoding="UTF-8"?>
<svg xmlns="http://www.w3.org/2000/svg" xml:space="preserve" width="125mm" height="40mm" version="1.1" style="shape-rendering:geometricPrecision; text-rendering:geometricPrecision; image-rendering:optimizeQuality; fill-rule:evenodd; clip-rule:evenodd"
viewBox="0 0 12500 4000"
 xmlns:xlink="http://www.w3.org/1999/xlink">
 <defs>
  <style type="text/css">
   <![CDATA[
    .fil0 {fill:#00467A;fill-rule:nonzero}
    .fil1 {fill:#10A5E0;fill-rule:nonzero}
   ]]>
  </style>
 </defs>
  <g id="_2692826593760">
   <polygon class="fil0" points="5115.38,3275.93 5567.23,3275.93 5567.23,724.07 5115.38,724.07 "/>
   <path class="fil0" d="M8046.44 1783.87l-948.6 0c-502,0 -523.13,-95.19 -523.13,-310.54 0,-323.43 146.22,-356.29 771.74,-356.29l340.22 0c705.65,0 782.3,56.55 808.94,206.21l9.7 54.87 436.24 -5.71 -7.1 -71.22c-41.56,-415.34 -337.31,-577.12 -1054.81,-577.12l-690.22 0c-663.11,0 -1046.94,118.88 -1046.94,726.37 0,720.58 442.86,752.6 1364.21,752.6l608.45 0c391.95,0 451.17,69.24 451.17,307.24 0,279.57 -77.51,372.66 -536.19,372.66l-994.43 0c-422.7,0 -457.72,-131.44 -457.72,-277.85l0 -67.06 -432.22 9.41 0 64.24c0,664.21 662.61,664.21 945.58,664.21l889.7 0c380.61,0 1017.54,0 1017.54,-690.36l0 -153.76c0,-574.25 -508.8,-647.9 -952.13,-647.9z"/>
   <path class="fil0" d="M11297.9 1783.87l-948.63 0c-502,0 -523.13,-95.19 -523.13,-310.54 0,-323.43 146.25,-356.29 771.74,-356.29l340.21 0c705.68,0 782.3,56.55 808.97,206.21l9.71 54.87 436.24 -5.71 -7.13 -71.22c-41.57,-415.34 -337.32,-577.12 -1054.82,-577.12l-690.17 0c-663.15,0 -1046.99,118.88 -1046.99,726.37 0,720.58 442.87,752.6 1364.22,752.6l608.45 0c391.95,0 451.2,69.24 451.2,307.24 0,279.57 -77.55,372.66 -536.27,372.66l-994.31 0c-422.74,0 -457.75,-131.44 -457.75,-277.85l0 -67.06 -432.28 9.41 0 64.24c0,664.21 662.61,664.21 945.59,664.21l889.74 0c380.57,0 1017.51,0 1017.51,-690.36l0 -153.76c0,-574.25 -508.77,-647.9 -952.1,-647.9z"/>
   <polygon class="fil0" points="3198.63,572.17 1715.84,572.17 1646.17,484.73 3269.56,484.73 "/>
   <polygon class="fil0" points="2323.59,1999.85 2252.96,2087.25 1476.74,3047.79 1405.47,3135.82 3026.01,3135.82 2719.49,3515.24 1240.24,3515.54 1168.92,3427.51 1085.65,3530.82 1054.21,3569.81 862.97,3806.93 792.97,3893.72 792.05,3894.95 2963,3894.95 3882.71,2756.77 2255.5,2756.77 2327.71,2668.72 2565.54,2377.98 4186.09,2377.98 4422.99,2087.25 4423.31,2086.95 4494.24,1999.85 "/>
   <polygon class="fil1" points="3815.56,2668.71 3882.68,2756.76 2255.51,2756.76 2327.69,2668.71 "/>
   <polygon class="fil1" points="4425.52,1914.34 4425.21,1914.34 4423.31,1911.78 3576.46,864.18 1948.93,864.18 1715.82,572.17 1646.15,484.75 3269.57,484.75 3269.57,484.41 2963,105.05 791.68,105.05 862.32,192.43 1708.88,1239.44 1779.81,1327.19 1849.47,1239.73 2658.34,1241.33 3331.65,1242.62 3638.22,1622.02 2017.66,1622.02 2088.27,1709.41 2254.25,1914.34 2254.53,1914.34 2323.59,1999.86 4494.55,1999.86 "/>
   <polygon class="fil1" points="2789.97,3426.89 1168.89,3427.53 1240.13,3515.56 2859.33,3515.24 2860.29,3513.99 "/>
   <polygon class="fil0" points="3473.28,1242.61 1849.79,1239.43 1779.8,1327.19 3402.64,1330.01 "/>
   <polygon class="fil0" points="1167.99,1999.96 1707.55,1999.96 792.49,3136.19 250,3135.86 "/>
   <polygon class="fil1" points="1707.54,1999.98 1167.94,1999.98 863.13,1621.9 1401.94,1619.95 "/>
  </g>
</svg>
