<?xml version="1.0" encoding="utf-8"?>
<!-- Generator: Adobe Illustrator 22.0.1, SVG Export Plug-In . SVG Version: 6.00 Build 0)  -->
<svg version="1.1" id="Layer_1" xmlns="http://www.w3.org/2000/svg" xmlns:xlink="http://www.w3.org/1999/xlink" x="0px" y="0px"
	 viewBox="0 0 99.9 20.4" style="enable-background:new 0 0 99.9 20.4;" xml:space="preserve">
<style type="text/css">
	.st0{clip-path:url(#SVGID_2_);fill:#6D6E71;}
	.st1{fill:#C1D52F;}
	.st2{fill:#6D6E71;}
</style>
<g>
	<g>
		<defs>
			<rect id="SVGID_1_" x="0.8" y="3.6" width="92.2" height="16.9"/>
		</defs>
		<clipPath id="SVGID_2_">
			<use xlink:href="#SVGID_1_"  style="overflow:visible;"/>
		</clipPath>
		<path class="st0" d="M3.5,5.9v2.9h8.4c1.9,0,3.4,1.5,3.4,3.4v1.5c0,1.9-1.5,3.4-3.4,3.4H4.1c-1.8,0-3.2-1.4-3.2-3.2v-0.8l2.8,0
			v1.4h8.8v-3.1H4.1c-1.8,0-3.3-1.5-3.3-3.3V6.8C0.8,5,2.2,3.6,4,3.6h7.8c2.4,0,3.3,0.6,3.3,2.9v0.7l-2.8,0V5.9H3.5L3.5,5.9z"/>
	</g>
	<polygon class="st1" points="17.7,3.6 20.8,3.6 20.8,17.1 17.7,17.1 17.7,3.6 	"/>
	<path class="st2" d="M44.9,14.5h8.9V3.6H57v10.3c0,1.8-1.4,3.2-3.2,3.2h-8.7c-1.8,0-3.3-1.5-3.3-3.3V3.6h3.1V14.5L44.9,14.5z"/>
	<path class="st2" d="M62.4,5.9v3.8h7c1,0,1.4-0.2,1.4-1.1V7c0-0.9-0.4-1.1-1.4-1.1H62.4L62.4,5.9z M59.4,3.6h11.5
		c2.1,0,3,0.7,3,2.6v3.2c0,1.9-1,2.6-3,2.6h-1.8l6.2,5.1h-4.5L65.4,12h-3v5.1h-3.1V3.6L59.4,3.6z"/>
	<path class="st2" d="M86.6,11.7l-2.9-5.5l-3,5.5H86.6L86.6,11.7z M82.3,3.6h3L93,17.1h-3.5l-1.6-2.9h-8.5l-1.6,2.9h-3.1L82.3,3.6
		L82.3,3.6z"/>
	<path class="st1" d="M36.4,3.6H26.3c-1.8,0-3.2,1.4-3.2,3.2v6.9c0,1.8,1.5,3.3,3.3,3.3h4.6l-1.3-2.5h-3.6V6h10.3v8.5H34l-1.6-2.8
		h-2.7l4.7,8.8h3l-2-3.4h1.1c1.8,0,3.2-1.4,3.2-3.2V6.9C39.7,5.1,38.2,3.6,36.4,3.6L36.4,3.6z"/>
</g>
</svg>
