<?xml version="1.0" encoding="UTF-8" standalone="no"?>
<svg width="600px" height="150px" viewBox="0 0 600 150" version="1.1" xmlns="http://www.w3.org/2000/svg" xmlns:xlink="http://www.w3.org/1999/xlink" xmlns:sketch="http://www.bohemiancoding.com/sketch/ns">
    <!-- Generator: Sketch 3.3.3 (12072) - http://www.bohemiancoding.com/sketch -->
    <title>logo_TrafficNet</title>
    <desc>Created with Sketch.</desc>
    <defs>
        <rect id="path-1" x="0.206483645" y="0.0274590164" width="325.205026" height="66.9467295"></rect>
    </defs>
    <g id="Page-1" stroke="none" stroke-width="1" fill="none" fill-rule="evenodd" sketch:type="MSPage">
        <g id="logo_TrafficNet" sketch:type="MSArtboardGroup">
            <g id="Group" sketch:type="MSLayerGroup" transform="translate(137.190000, 34.000000)">
                <g id="Clipped">
                    <mask id="mask-2" sketch:name="Rectangle-path" fill="white">
                        <use xlink:href="#path-1"></use>
                    </mask>
                    <g id="Rectangle-path"></g>
                    <g id="Group" mask="url(#mask-2)" sketch:type="MSShapeGroup">
                        <path d="M264.349718,16.0873041 L256.985827,16.0873041 L256.985827,66.0407467 L264.442909,66.0407467 L264.442909,28.2241893 C264.442909,25.7034516 264.442909,22.0623861 268.356916,22.0623861 C271.618604,22.0623861 271.618604,24.7698451 271.618604,26.9171402 L271.618604,66.0407467 L279.262067,66.0407467 L279.262067,25.5167303 C279.262067,22.1557467 279.262067,15.1518852 271.713604,15.1518852 C267.611373,15.1518852 265.654385,17.6744517 264.349713,19.2615884 L264.349713,16.0873206 L264.349718,16.0873041 Z M283.323935,56.5161475 C283.323935,58.758632 283.323935,64.1735336 289.660917,66.227468 C291.060612,66.6942713 292.551688,66.8828214 294.135906,66.8828214 C305.507006,66.8828214 305.507006,57.5430763 305.507006,54.5555353 L305.507006,47.4601255 L297.956734,47.4601255 L297.956734,56.2360271 C297.956734,57.7316319 297.863552,60.8125335 294.229103,60.8125335 C290.686028,60.8125335 290.686028,58.1032457 290.686028,56.7028359 L290.686028,42.6987375 L305.507001,42.6987375 L305.507001,26.4503039 C305.507001,24.2096482 305.507001,15.2470252 294.508665,15.2470252 C289.847277,15.2470252 285.74691,17.3009652 284.255801,21.3154679 C283.323886,23.462763 283.323886,26.170222 283.323886,29.7197392 L283.323886,56.5160597 L283.323935,56.5161475 Z M297.957101,36.4417943 L290.686401,36.4417943 L290.686401,26.8238344 C290.686401,24.489818 290.686401,21.4089164 294.509054,21.4089164 C297.957106,21.4089164 297.957106,23.9296541 297.957106,25.9854228 L297.957106,36.4418162 L297.957101,36.4417943 Z M313.108846,5.34901639 L313.108846,16.1788525 L308.542481,16.1788525 L308.542481,22.342468 L313.015628,22.342468 L313.015628,58.385173 C313.015628,63.7067303 313.574784,66.602723 321.125046,66.602723 C322.802482,66.602723 324.107155,66.32081 325.411833,66.1340887 L325.411833,60.4390887 C321.684203,60.62581 320.565923,60.2523674 320.565923,56.8913838 L320.565923,22.3424494 L324.85271,22.3424494 L324.85271,16.1788338 L320.565923,16.1788338 L320.565923,5.34899772 L313.108841,5.34899772 L313.108846,5.34901639 Z" id="Shape" fill="#5090CD"></path>
                        <path d="M122.522474,5.34901639 L122.522474,16.1806648 L117.954294,16.1806648 L117.954294,22.342468 L122.429283,22.342468 L122.429283,58.3833607 C122.429283,63.7067523 122.988428,66.6009107 130.536892,66.6009107 C132.216148,66.6009107 133.520826,66.3208287 134.825499,66.1341074 L134.825499,60.4391074 C131.096032,60.6258287 129.977741,60.2523861 129.977741,56.8895737 L129.977741,22.3424516 L134.266348,22.3424516 L134.266348,16.1806483 L129.977741,16.1806483 L129.977741,5.34899992 L122.522468,5.34899992 L122.522474,5.34901639 Z M145.037945,15.9921311 L137.394427,15.9921311 L137.394427,66.0407467 L144.851564,66.0407467 L144.851564,32.5205918 C144.851564,29.0644188 144.944745,22.8092713 150.256631,22.8092713 C152.493207,22.8092713 153.799722,23.6495172 154.73162,24.3030418 L154.73162,15.6205008 C154.077458,15.5271413 153.426947,15.4319507 152.681425,15.4319507 C148.020055,15.4319507 146.435826,18.8881238 145.037962,21.7822876 L145.037962,15.9921147 L145.037945,15.9921311 Z M156.016383,32.0538434 L163.659901,32.0538434 L163.659901,25.049982 C163.659901,23.6495721 163.659901,21.3155557 166.923397,21.3155557 C169.905506,21.3155557 170.185085,23.4628508 170.185085,25.1433426 L170.185085,32.6140074 C170.185085,33.0808096 168.787227,34.4812205 167.202976,35.5081877 L160.025467,39.9913334 C155.459101,42.8855138 155.459101,45.6863334 155.459101,49.327399 L155.459101,58.1984736 C155.459101,60.6258507 155.459101,66.6009326 162.54161,66.6009326 C166.643841,66.6009326 168.319447,64.1735556 169.719119,62.0262605 C170.185077,63.8934736 170.278276,64.2669162 171.023792,66.0407687 L179.03821,66.0407687 C177.733537,63.3333097 177.642177,60.6258507 177.642177,57.544949 L177.642177,25.8901949 C177.642177,22.622572 177.642177,15.1519072 166.830223,15.1519072 C156.016405,15.1519072 156.016405,23.1827359 156.016405,25.9835556 L156.016405,32.0538105 L156.016383,32.0538434 Z M170.18469,52.9684426 C170.18469,54.1821311 170.18469,60.6258287 165.896083,60.6258287 C162.913974,60.6258287 162.913974,57.2648451 162.913974,54.6489344 L162.913974,49.607459 C162.913974,47.4601639 163.47313,45.9663934 165.618346,44.472623 C167.202581,43.4456557 169.439174,41.8585301 170.184695,41.2031712 L170.184695,52.9684261 L170.18469,52.9684426 Z M183.658999,16.1806648 L179.465397,16.1806648 L179.465397,22.342468 L183.565803,22.342468 L183.565803,66.0407467 L191.209266,66.0407467 L191.209266,22.342468 L195.68243,22.342468 L195.68243,16.1806648 L191.302463,16.1806648 L191.302463,9.64360656 C191.302463,6.65606557 192.793517,6.65606557 195.402852,6.74942623 L195.402852,0.305728689 C193.445854,0.120844385 191.861603,0.0256494672 190.370548,0.0256494672 C184.218139,0.0256494672 183.658994,3.10655111 183.658994,7.40295357 L183.658994,16.1806675 L183.658999,16.1806648 Z M200.11761,16.1806648 L195.924025,16.1806648 L195.924025,22.342468 L200.02443,22.342468 L200.02443,66.0407467 L207.667894,66.0407467 L207.667894,22.342468 L212.047861,22.342468 L212.047861,16.1806648 L207.761074,16.1806648 L207.761074,9.64360656 C207.761074,6.65606557 209.252128,6.65606557 211.861479,6.74942623 L211.861479,0.305728689 C209.904464,0.120844385 208.32023,0.0256494672 206.829175,0.0256494672 C200.676766,0.0256494672 200.117621,3.10655111 200.117621,7.40295357 L200.117621,16.1806675 L200.11761,16.1806648 Z M216.707236,10.2971311 L224.071127,10.2971311 L224.071127,0.305728689 L216.707236,0.305728689 L216.707236,10.2971311 L216.707236,10.2971311 Z M216.520855,66.040582 L223.977936,66.040582 L223.977936,16.0871393 L216.520855,16.0871393 L216.520855,66.040582 L216.520855,66.040582 Z M228.598945,56.2360656 C228.598945,60.6258507 229.344483,66.9743533 239.783717,66.9743533 C250.966627,66.9743533 250.966627,58.0117303 250.966627,55.302459 L250.966627,46.2464754 L243.511354,46.2464754 L243.511354,55.4891803 C243.511354,57.7316703 243.511354,60.7192058 239.597347,60.7192058 C235.961059,60.7192058 235.961059,57.8231967 235.961059,56.7962295 L235.961059,26.4503369 C235.961059,24.2096811 235.961059,21.5022221 239.783728,21.5022221 C242.952219,21.5022221 243.511359,23.2760746 243.511359,25.5167358 L243.511359,34.0143678 L251.061632,34.0143678 L251.061632,27.1972276 C251.061632,23.7428834 250.96661,15.1518907 239.783723,15.1518907 C228.59895,15.1518907 228.59895,24.3030473 228.59895,26.6370637 L228.59895,56.2360711 L228.598945,56.2360656 Z" id="Shape" fill="#231F20"></path>
                        <path d="M35.9041001,1.70064672 L35.7122376,17.4401549 L44.291283,17.4401549 L44.291283,28.2535156 L35.6153738,28.2535156 L35.4235113,47.4693352 C35.4235113,49.4006157 35.5185287,52.6847141 40.8194458,52.6847141 L44.386284,52.6847141 L44.386284,66.9743862 L55.8706931,66.9743862 L55.8706931,32.1765084 C55.8706931,28.6471076 56.1228562,21.4601879 65.310384,21.4601879 C73.993584,21.4601879 74.1196658,28.0155887 74.1196658,31.2941952 L74.1196658,66.9744411 L100.044993,66.9744411 L100.044993,25.7474739 C100.044993,20.828647 99.6667465,12.1296141 93.5015111,6.0795141 C91.3599511,4.06035926 86.2015383,0.0257345902 75.8811385,0.0257345902 C61.5352203,0.0257345902 56.6253202,7.33900426 54.4874111,10.3649879 L54.4874111,1.66415918 L35.9041001,1.70064672 Z M29.9453637,66.9247623 L29.9453637,66.9741886 L31.8566928,66.9741886 C31.4144943,66.9741886 30.7457147,66.9686967 29.9453637,66.9247623 L29.9453637,66.9247623 Z" id="Shape" fill="#5090CD"></path>
                        <path d="M7.14648191,17.4382877 L0.206500091,17.4382877 L0.206500091,28.2553279 L7.04961818,28.2553279 L6.76090891,52.4906557 C6.76090891,55.0022386 6.76090891,59.4432787 10.1340525,62.82255 C14.0864434,66.8791639 21.1214252,66.9743533 23.2428888,66.9743533 L35.7725162,66.9743533 L35.7725162,52.6846811 L32.2075089,52.6846811 C26.9047653,52.6846811 26.807918,49.4005828 26.807918,47.4693023 L27.0016087,28.2552949 L35.6756541,28.2552949 L35.6756541,17.4382548 L27.0984176,17.4382548 L27.2902824,1.69874656 L7.340137,1.69874656 L7.14644573,17.4382548 L7.14648191,17.4382877 Z" id="Shape" fill="#231F20"></path>
                    </g>
                </g>
            </g>
        </g>
    </g>
</svg>