<?xml version="1.0" encoding="UTF-8" standalone="no"?>
<svg width="600px" height="150px" viewBox="0 0 600 150" version="1.1" xmlns="http://www.w3.org/2000/svg" xmlns:xlink="http://www.w3.org/1999/xlink" xmlns:sketch="http://www.bohemiancoding.com/sketch/ns">
    <!-- Generator: Sketch 3.3.3 (12072) - http://www.bohemiancoding.com/sketch -->
    <title>logo_Wavetronix</title>
    <desc>Created with Sketch.</desc>
    <defs></defs>
    <g id="Page-1" stroke="none" stroke-width="1" fill="none" fill-rule="evenodd" sketch:type="MSPage">
        <g id="logo_Wavetronix" sketch:type="MSArtboardGroup">
            <g id="Imported-Layers" sketch:type="MSLayerGroup" transform="translate(52.940002, 46.999867)">
                <path d="M0,0 L30.8824997,0 C30.8824997,0 6.17649994,6.30002994 6.17649994,18.9000898 C6.17649994,37.8001796 49.4119995,47.2502245 49.4119995,47.2502245 L49.4119995,50.4002395 L0,50.4002395 L0,0 L0,0 Z M37.0589996,0 C37.0589996,0 15.4412498,6.30002994 15.4412498,15.7500748 C15.4412498,28.3501347 49.4119995,34.6501647 49.4119995,34.6501647 L49.4119995,0 L37.0589996,0 L37.0589996,0 Z" id="Fill-1" fill="#EBAB00" sketch:type="MSShapeGroup"></path>
                <path d="M119.61547,50.4002395 L105.283245,50.4002395 L96.8804604,12.1576578 L88.4008122,50.4002395 L74.0713324,50.4002395 L61.7649994,0.0616002927 L72.8689737,0.0616002927 L81.3486219,36.0389713 L90.050624,0.0616002927 L103.784415,0.0616002927 L112.335436,36.0389713 L120.738221,0.0616002927 L131.84494,0.0616002927 L119.61547,50.4002395" id="Fill-2" fill="#000000" sketch:type="MSShapeGroup"></path>
                <path d="M172.678468,50.4002395 L160.973314,50.4002395 L158.272125,40.5749928 L141.540673,40.5749928 L138.839483,50.4002395 L127.13433,50.4002395 L142.366951,0.0616002927 L157.371728,0.0616002927 L172.678468,50.4002395 L172.678468,50.4002395 Z M144.090881,31.1277479 L155.570935,31.1277479 L149.86934,10.0408477 L144.090881,31.1277479 L144.090881,31.1277479 Z" id="Fill-3" fill="#000000" sketch:type="MSShapeGroup"></path>
                <path d="M197.598586,50.4002395 L181.542431,50.4002395 L167.435305,0.0616002927 L178.989478,0.0616002927 L189.569136,40.1213907 L200.148794,0.0616002927 L211.705712,0.0616002927 L197.598586,50.4002395" id="Fill-4" fill="#000000" sketch:type="MSShapeGroup"></path>
                <path d="M216.218675,50.4002395 L216.218675,0.0616002927 L247.655687,0.0616002927 L247.655687,10.1164481 L227.470885,10.1164481 L227.470885,19.3368919 L246.079993,19.3368919 L246.079993,29.3889397 L227.470885,29.3889397 L227.470885,40.3481917 L247.655687,40.3481917 L247.655687,50.4002395 L216.218675,50.4002395" id="Fill-5" fill="#000000" sketch:type="MSShapeGroup"></path>
                <path d="M276.627589,10.1164481 L276.627589,50.4002395 L265.372634,50.4002395 L265.372634,10.1164481 L251.94355,10.1164481 L251.94355,0.0616002927 L290.059418,0.0616002927 L290.059418,10.1164481 L276.627589,10.1164481" id="Fill-6" fill="#000000" sketch:type="MSShapeGroup"></path>
                <path d="M377.941404,35.7393698 C377.941404,43.3694061 372.690006,51.1534431 358.58288,51.1534431 C344.4785,51.1534431 339.224357,43.3694061 339.224357,35.7393698 L339.224357,14.72807 C339.224357,7.0924337 344.4785,-0.691603286 358.58288,-0.691603286 C372.690006,-0.691603286 377.941404,7.0924337 377.941404,14.72807 L377.941404,35.7393698 L377.941404,35.7393698 Z M366.686448,15.7080746 C366.686448,11.779656 364.210358,9.36044448 358.58288,9.36044448 C352.958148,9.36044448 350.479313,11.779656 350.479313,15.7080746 L350.479313,34.7537651 C350.479313,38.6849838 352.958148,41.1041953 358.58288,41.1041953 C364.210358,41.1041953 366.686448,38.6849838 366.686448,34.7537651 L366.686448,15.7080746 L366.686448,15.7080746 Z" id="Fill-7" fill="#000000" sketch:type="MSShapeGroup"></path>
                <path d="M395.812077,17.2956822 L395.812077,50.4002395 L385.081438,50.4002395 L385.081438,0.0616002927 L398.886601,0.0616002927 L415.318836,34.7537651 L415.318836,0.0616002927 L426.049476,0.0616002927 L426.049476,50.4002395 L412.167449,50.4002395 L395.812077,17.2956822" id="Fill-8" fill="#000000" sketch:type="MSShapeGroup"></path>
                <path d="M435.06442,0.0616002927 L446.319376,0.0616002927 L446.319376,50.4002395 L435.06442,50.4002395 L435.06442,0.0616002927 Z" id="Fill-9" fill="#000000" sketch:type="MSShapeGroup"></path>
                <path d="M478.961492,24.8529181 L494.119995,50.4002395 L482.337978,50.4002395 L472.661462,33.7709605 L462.9822,50.4002395 L451.202928,50.4002395 L466.281824,24.8529181 L451.727245,0.0616002927 L463.506516,0.0616002927 L472.661462,15.9348757 L481.813662,0.0616002927 L493.595679,0.0616002927 L478.961492,24.8529181" id="Fill-10" fill="#000000" sketch:type="MSShapeGroup"></path>
                <path d="M324.507817,33.1689576 C329.534115,31.0521476 331.785106,26.8185274 331.785106,20.5464976 L331.785106,14.3472682 C331.785106,4.90002328 327.285869,0.0616002927 315.127772,0.0616002927 L294.344536,0.0616002927 L294.344536,50.4002395 L305.599491,50.4002395 L305.599491,10.1164481 L314.529338,10.1164481 C319.105438,10.1164481 320.530151,11.6256552 320.530151,15.4056732 L320.530151,19.4124922 C320.530151,23.1897102 319.330537,24.9285185 314.529338,24.9285185 L312.171287,24.9285185 L312.201484,34.7537651 L323.234085,50.4002395 L336.58905,50.4002395 L324.507817,33.1689576" id="Fill-11" fill="#000000" sketch:type="MSShapeGroup"></path>
            </g>
        </g>
    </g>
</svg>